<svg width="542" height="76" viewBox="0 0 542 76" fill="none" xmlns="http://www.w3.org/2000/svg">
<g clip-path="url(#clip0_0_491)">
<path d="M408.135 52.5177C408.135 52.5177 342.351 53.3739 261.213 53.3739C180.074 53.3739 114.29 52.5177 114.29 52.5177C114.29 52.5177 180.074 51.6616 261.213 51.6616C342.351 51.6616 408.135 52.5177 408.135 52.5177Z" fill="white"/>
<path d="M85.2112 39.1375C85.2112 59.4889 68.5491 76 48.0115 76C27.4739 76 10.8118 59.4889 10.8118 39.1375C10.8118 18.786 27.4739 2.2749 48.0115 2.2749C68.5491 2.2749 85.2112 18.786 85.2112 39.1375Z" fill="white"/>
<path d="M65.8091 27.0781C64.5255 27.494 61.7608 28.5947 61.2918 29.989C60.8475 31.3343 61.6374 33.4624 61.7608 35.0279C61.8842 36.52 61.7608 38.0121 61.8842 39.4553C62.9703 39.9446 63.2912 39.0884 64.0565 39.015C64.8957 38.9417 65.2413 39.5287 66.2287 39.9201C67.9813 40.6295 70.9682 40.2136 70.4251 37.7431C70.3757 37.4495 69.8327 37.0337 69.7092 36.7157C69.3883 35.9574 69.413 35.0768 69.2402 34.2941C69.0674 33.4869 68.87 32.5574 68.3763 31.8725C68.0801 31.4566 67.3148 31.1386 67.1174 30.6739C66.4015 28.9861 67.8085 27.812 65.3648 27.3472C65.4141 27.2004 65.5129 27.2004 65.6363 27.0781" fill="#19232D"/>
<path d="M68.1294 11.4969C66.3275 10.812 66.204 9.95583 64.9204 8.75725C63.7849 7.70543 62.995 7.99896 61.6867 8.19465C61.0203 8.29249 59.712 7.9745 59.0949 8.19465C57.8113 8.63494 58.5024 10.1026 57.6632 10.6652C56.8239 11.2033 55.3922 9.95583 54.4048 9.93137C53.3434 9.90691 51.0477 9.88245 50.0603 10.2249C48.6533 10.7141 48.5792 12.1329 49.6407 13.2825C50.5046 14.2365 51.8623 14.212 52.9731 14.7012C54.3801 15.3128 55.8365 16.4135 56.6511 17.7099C57.5891 19.1776 57.7866 20.1071 59.2183 21.0122C61.0203 22.1618 61.0943 24.0942 63.3159 24.4856C65.266 24.8281 65.6363 24.559 67.0927 25.8065C68.1541 26.736 69.0674 27.2008 69.1168 28.644C69.1662 30.0138 68.5984 31.2613 70.5238 31.9462C71.9555 32.4599 73.5601 31.3591 74.35 33.2671C74.7449 34.221 74.7202 36.0556 74.893 37.1074C75.1645 38.7463 74.7696 40.1406 75.1646 41.7305C75.7817 44.1522 75.4855 45.6198 74.7696 47.9436C74.3253 49.3868 72.8195 52.5422 74.5968 53.5451C75.1892 51.148 76.2507 48.8976 78.1514 47.2342C80.0027 45.6198 82.5946 44.6658 83.0389 41.9996C83.4092 39.7981 81.9775 39.2844 81.2863 37.5477C80.9161 36.5937 79.7559 32.8023 81.4344 32.7045C81.8541 33.2181 81.8047 33.8052 82.0762 34.27C82.3725 34.7592 82.8415 35.1506 83.1624 35.5664C83.8288 34.0009 83.9523 32.9491 83.6067 31.2613C83.3105 29.7692 82.9649 28.5706 81.8541 27.4698C80.3483 25.9533 80.1755 24.4122 79.0153 22.5777C77.8552 20.7431 78.2995 19.4467 77.633 17.5387C77.1887 16.2423 75.6829 14.9703 74.7696 13.943C73.8563 12.9156 72.3258 11.2523 70.9435 10.9343C70.1783 10.763 67.7592 10.7141 67.6357 11.3746" fill="#19232D"/>
<path d="M17.6494 40.1893C17.6494 39.1864 17.4026 37.841 17.7975 36.9115C18.1431 36.0798 19.0071 35.4928 19.5995 34.759C20.7597 33.2424 22.2408 31.0409 24.339 30.8452C24.5118 33.805 22.8826 36.3734 22.5123 39.1619C22.3642 40.385 23.4997 42.7088 21.4015 42.9044C19.8217 43.0512 19.2046 39.8957 17.6494 39.749" fill="#19232D"/>
<path d="M62.304 62.9626C63.4148 62.7669 64.5503 62.5712 65.6611 62.3755C64.723 61.0791 65.3648 59.6848 65.0686 58.2171C66.8212 58.5351 68.796 58.2171 70.5486 58.0215C71.7828 57.8747 73.1652 57.1653 74.35 57.2387C74.6216 59.5136 73.3873 61.3481 71.9063 62.9626C71.141 63.7698 69.3884 66.5583 68.2776 66.6806C65.3155 66.9986 65.982 62.2532 62.6002 63.3784L62.304 62.9381V62.9626Z" fill="#19232D"/>
<path d="M55.6142 57.3365C54.3553 57.1898 53.0717 57.9725 51.8375 58.1682C50.2823 58.3883 50.307 58.266 49.6159 59.3668C48.9494 60.4186 45.1233 64.846 49.0728 64.0388C50.6773 63.7208 52.4052 61.6906 53.7382 60.7855C54.5775 60.1984 55.2933 59.9783 55.7623 59.0977C56.182 58.2905 55.9845 55.5753 54.6021 57.043" fill="#19232D"/>
<path d="M47.197 16.3888C46.6539 15.8017 45.7406 15.2391 44.9013 15.2636C46.0121 13.9182 48.0116 13.8448 47.271 11.5944C46.333 8.85481 44.2101 11.839 42.9265 12.5973C41.0999 13.7225 38.8783 13.3556 37.1256 14.652C36.0148 15.4837 35.0275 16.56 33.7932 17.2694C32.7318 17.8564 31.5963 18.0521 30.6583 18.8838C29.6462 19.7644 29.8684 20.3025 29.424 21.3543C29.0538 22.2105 28.017 22.7975 27.943 23.8004C27.8689 24.7789 28.6095 25.7084 28.412 26.7846C28.1404 28.2034 27.4493 28.766 28.5848 30.2336C29.5968 31.5301 30.1152 31.897 30.4361 33.5848C30.8311 35.5172 31.2754 35.297 33.1021 34.8567C34.1882 34.5877 34.83 34.1718 35.6939 35.346C36.2617 36.1287 35.8667 37.523 37.2738 37.3518C37.2738 38.0611 36.6566 38.4036 36.5579 39.0151C36.4345 39.7978 36.8788 40.1403 36.8541 40.8986C36.8294 41.7547 36.237 42.2929 35.7186 42.9778C35.0521 43.8828 34.7066 45.008 34.0894 45.8641C33.2008 47.1361 31.3988 47.5764 31.1767 49.2642C30.8804 51.6614 32.5343 53.9852 32.4356 56.3089C32.3615 58.0457 30.1646 59.7335 32.633 60.3695C33.8673 60.6875 35.2002 59.9781 36.3851 59.9047C37.7428 59.8069 39.2238 60.1738 40.6062 59.7824C42.7784 59.1953 41.5936 57.9967 42.8031 56.578C43.519 55.7219 44.9754 55.6974 45.6912 54.8658C46.1108 54.401 46.2836 53.447 46.4564 52.86C47.7647 52.7866 48.7768 54.1075 49.8135 53.9852C51.1218 53.8139 51.0478 51.4168 51.6402 50.5606C52.8004 48.9218 54.2321 49.729 55.7132 49.2397C55.9847 49.1419 55.9353 48.4325 56.3303 48.2613C57.0708 47.9678 58.0088 48.3592 58.7987 47.9678C60.033 47.3563 61.3659 45.4238 62.3039 44.3476C63.0445 43.5159 63.9331 42.7332 62.6989 42.0482C61.7609 41.5346 60.6501 42.3173 59.9095 41.4612C58.9962 40.4338 59.3171 37.8654 59.0949 36.569C58.774 34.7344 58.7 33.8783 59.6133 32.215C60.4526 30.6739 61.1685 29.1084 60.2058 27.4696C59.9589 27.0293 59.3665 26.7847 59.0949 26.3199C58.7494 25.7328 58.7987 24.9256 58.3544 24.2896C57.2683 22.6997 55.9106 22.2838 54.1333 21.9903C51.9611 21.6479 52.356 20.9874 51.2452 19.5687C50.4306 18.5413 49.3445 18.9816 48.4806 18.2723C48.0856 17.9543 47.1476 15.9485 47.1476 16.1197" fill="#19232D"/>
<path d="M56.5524 47.8943C28.6835 56.0398 4.91222 57.6297 2.64124 51.6123C0.617102 53.716 -0.296228 55.5995 0.0740406 57.116C1.65386 63.5248 25.7707 61.1521 53.9852 51.808C73.8316 45.2525 90.3703 36.9847 97.8991 30.4292C89.2842 36.202 74.1772 42.7575 56.5524 47.9187V47.8943Z" fill="#19232D"/>
<path d="M78.3243 41.5591C39.7423 52.8355 6.81301 55.037 3.67807 46.6959C0.888704 49.6067 -0.394896 52.224 0.123481 54.3276C2.29573 63.207 35.7187 59.9047 74.7697 46.9649C102.244 37.8655 125.176 26.4178 135.617 17.3428C123.67 25.3415 102.762 34.4165 78.349 41.5591H78.3243Z" fill="white"/>
<path d="M135.691 26.6377H133.445L135.445 17.2202H137.691L136.926 20.767H140.381L141.147 17.2202H143.393L141.369 26.6377H139.123L139.986 22.5771H136.506L135.642 26.6377H135.691Z" fill="white"/>
<path d="M144.183 22.0148C144.183 22.0148 144.232 21.8436 144.257 21.7458C144.282 21.6479 144.331 21.5745 144.356 21.4767C144.553 21.0119 144.948 20.5961 145.491 20.2047C146.059 19.8134 146.898 19.6177 148.058 19.6177C149.095 19.6177 149.786 19.7644 150.156 20.0824C150.527 20.376 150.749 20.7184 150.798 21.1098C150.798 21.1587 150.798 21.2076 150.798 21.2321C150.798 21.281 150.798 21.3299 150.798 21.3544C150.798 21.5012 150.798 21.6235 150.774 21.7458C150.774 21.8681 150.724 21.9904 150.7 22.0882L150.008 25.2192C150.008 25.2192 150.008 25.3171 149.984 25.366C149.984 25.4149 149.959 25.4394 149.934 25.4883C149.934 25.5372 149.91 25.6106 149.885 25.684C149.885 25.7574 149.885 25.8307 149.885 25.953V26.1977C149.885 26.1977 149.885 26.2466 149.885 26.271C149.885 26.32 149.91 26.3689 149.959 26.4178C149.984 26.4667 150.033 26.5156 150.107 26.5646V26.6135H147.935L147.885 25.9286H147.836C147.836 25.9286 147.589 26.1487 147.466 26.2221C147.342 26.2955 147.219 26.3933 147.096 26.4423C146.725 26.6135 146.404 26.7113 146.108 26.7358C145.812 26.7603 145.59 26.7847 145.491 26.7847C145.392 26.7847 145.294 26.7847 145.22 26.7847C145.121 26.7847 145.022 26.7847 144.948 26.7847C144.553 26.7358 144.183 26.589 143.837 26.3689C143.492 26.1487 143.344 25.7329 143.344 25.1458C143.344 24.2897 143.64 23.7026 144.257 23.3847C144.874 23.0667 145.54 22.8465 146.306 22.7242C146.454 22.7242 146.602 22.6997 146.75 22.6753C146.898 22.6508 147.046 22.6264 147.194 22.6264C147.244 22.6264 147.318 22.6264 147.367 22.6264C147.416 22.6264 147.466 22.6264 147.515 22.6264C147.935 22.5774 148.256 22.5041 148.453 22.3818C148.651 22.2595 148.749 22.0148 148.749 21.599C148.749 21.4033 148.7 21.2566 148.577 21.1832C148.453 21.0853 148.33 21.0364 148.206 20.9875C148.132 20.9875 148.058 20.963 148.009 20.963C147.935 20.963 147.885 20.963 147.836 20.963C147.416 20.963 147.096 21.0609 146.873 21.2321C146.651 21.4033 146.503 21.599 146.429 21.8192C146.429 21.8681 146.404 21.917 146.38 21.9415C146.38 21.9904 146.38 22.0393 146.355 22.0638H144.207L144.183 22.0148ZM148.429 23.3847C148.429 23.3847 148.231 23.4825 148.132 23.507C148.058 23.5314 147.96 23.5559 147.885 23.5803C147.836 23.5803 147.787 23.6048 147.737 23.6293C147.688 23.6293 147.639 23.6293 147.565 23.6537C147.515 23.6537 147.466 23.6537 147.392 23.6782C147.342 23.6782 147.268 23.6782 147.194 23.7026C147.096 23.7026 146.997 23.7271 146.898 23.7516C146.799 23.7516 146.676 23.8005 146.553 23.8249C146.306 23.8983 146.083 24.0206 145.861 24.1674C145.639 24.3142 145.54 24.5832 145.54 24.9012C145.54 25.1458 145.639 25.3171 145.812 25.4149C145.985 25.5128 146.207 25.5617 146.429 25.5617C146.528 25.5617 146.676 25.5617 146.824 25.5128C146.972 25.4638 147.17 25.3904 147.342 25.2926C147.54 25.1703 147.713 24.9746 147.885 24.7545C148.058 24.5343 148.206 24.1919 148.28 23.8005L148.379 23.3602L148.429 23.3847Z" fill="white"/>
<path d="M151.391 29.1327L151.687 27.7629C151.687 27.7629 151.885 27.8118 151.983 27.8118C152.082 27.8118 152.205 27.8118 152.354 27.8118C152.6 27.8118 152.798 27.7629 152.946 27.665C153.094 27.5672 153.242 27.4204 153.366 27.2247C153.39 27.1758 153.44 27.1269 153.464 27.0535C153.489 27.0046 153.538 26.9312 153.563 26.8578L153.736 26.5398L152.181 19.7642H154.378L155.291 24.3873L157.513 19.7642H159.71L155.76 26.9801C155.76 26.9801 155.661 27.1514 155.612 27.2492C155.563 27.347 155.513 27.4204 155.464 27.5183C155.143 28.0564 154.773 28.4722 154.378 28.7658C153.983 29.0593 153.489 29.2061 152.847 29.2061C152.798 29.2061 152.724 29.2061 152.65 29.2061C152.576 29.2061 152.502 29.2061 152.452 29.2061C152.304 29.2061 152.181 29.2061 152.057 29.1816C151.934 29.1816 151.811 29.1571 151.712 29.1327C151.662 29.1327 151.613 29.1327 151.564 29.1327C151.514 29.1327 151.465 29.1327 151.44 29.1327H151.391Z" fill="white"/>
<path d="M162.252 19.813L161.832 21.7943C161.832 21.7943 161.832 21.8188 161.832 21.8432V21.8922C161.832 21.9411 161.832 22.0145 161.808 22.0634C161.783 22.1123 161.808 22.1612 161.808 22.2102C161.808 22.3814 161.882 22.5037 162.03 22.6015C162.178 22.6994 162.449 22.7483 162.894 22.7483C162.992 22.7483 163.091 22.7483 163.19 22.7483C163.289 22.7483 163.363 22.7483 163.461 22.7483C163.536 22.7483 163.61 22.7483 163.659 22.7238C163.733 22.7238 163.807 22.7238 163.881 22.7238L164.498 19.813H166.572L165.115 26.662H163.042L163.585 24.0936C163.165 24.0936 162.869 24.1426 162.672 24.1426C162.474 24.1426 162.326 24.1426 162.252 24.1426C161.437 24.1426 160.82 24.0447 160.401 23.8246C159.981 23.6044 159.734 23.1886 159.759 22.6015C159.759 22.5037 159.759 22.3814 159.759 22.2835C159.759 22.1857 159.783 22.0389 159.808 21.9166L160.252 19.813H162.326H162.252Z" fill="white"/>
<path d="M168.719 26.6376H166.646L168.127 19.7886H170.2L169.657 22.357H172.15L172.693 19.7886H174.767L173.286 26.6376H171.212L171.83 23.7512H169.336L168.719 26.6376Z" fill="white"/>
<path d="M178.569 26.9067C177.31 26.9067 176.446 26.6132 175.977 26.0261C175.508 25.4391 175.261 24.8275 175.236 24.1182C175.236 24.0693 175.236 24.0203 175.236 23.9714V23.8246C175.236 23.7023 175.236 23.5556 175.236 23.4333C175.236 23.2865 175.261 23.1642 175.285 23.0174C175.434 22.1368 175.853 21.3541 176.569 20.6203C177.26 19.8864 178.272 19.5195 179.605 19.5195C180.864 19.5195 181.728 19.8131 182.197 20.4001C182.666 20.9872 182.913 21.6232 182.938 22.3325C182.938 22.3815 182.938 22.4304 182.938 22.4548V22.5771C182.938 22.7239 182.938 22.8707 182.938 22.993C182.938 23.1397 182.913 23.262 182.864 23.4088C182.691 24.2649 182.271 25.0477 181.58 25.7571C180.889 26.4664 179.877 26.8089 178.569 26.8089V26.9067ZM180.05 24.9743C180.346 24.6074 180.543 24.1916 180.667 23.7513C180.741 23.5311 180.79 23.2865 180.815 23.0664C180.839 22.8462 180.864 22.6505 180.864 22.4793C180.864 22.4793 180.864 22.3081 180.864 22.1613C180.864 22.0145 180.815 21.8678 180.741 21.721C180.667 21.5253 180.519 21.3296 180.321 21.1584C180.124 20.9872 179.827 20.9138 179.432 20.9138C178.914 20.9138 178.519 21.085 178.223 21.403C177.927 21.721 177.729 22.1124 177.606 22.5038C177.507 22.7973 177.458 23.1153 177.408 23.3844C177.384 23.6779 177.359 23.8736 177.359 23.9959C177.359 24.4851 177.458 24.852 177.655 25.0722C177.853 25.2923 178.075 25.4146 178.297 25.488C178.371 25.488 178.47 25.5125 178.544 25.5369C178.618 25.5369 178.692 25.5369 178.791 25.5369C179.334 25.5369 179.753 25.3412 180.05 24.9743Z" fill="white"/>
<path d="M184.666 22.2104H188.566L188.196 23.8983H184.271L184.641 22.2104H184.666Z" fill="white"/>
<path d="M191.577 26.6376H189.504L190.985 19.7886H197.749L196.292 26.6376H194.219L195.379 21.1584H192.738L191.553 26.6376H191.577Z" fill="white"/>
<path d="M201.254 19.813L201.081 20.5224H201.13C201.599 20.1065 202.044 19.8375 202.463 19.7152C202.883 19.5929 203.253 19.5439 203.574 19.5439C204.413 19.5439 205.03 19.813 205.475 20.3022C205.919 20.7915 206.141 21.4764 206.141 22.2591C206.141 22.4793 206.141 22.6994 206.092 22.944C206.067 23.1886 206.018 23.4088 205.944 23.6534C205.722 24.4606 205.327 25.1944 204.709 25.8549C204.117 26.5153 203.278 26.8333 202.216 26.8333C201.797 26.8333 201.402 26.7599 201.007 26.6131C200.637 26.4664 200.34 26.2462 200.143 25.9527L199.476 29.1326H197.403L199.402 19.813H201.254ZM200.562 23.5311C200.562 23.6534 200.538 23.8001 200.538 23.9224C200.538 24.3872 200.661 24.7541 200.883 25.0232C201.106 25.2923 201.426 25.4146 201.871 25.4146C202.389 25.4146 202.809 25.2433 203.105 24.8764C203.401 24.534 203.623 24.1426 203.771 23.7268C203.846 23.5066 203.895 23.2865 203.92 23.0908C203.944 22.8706 203.969 22.6994 203.969 22.5282C203.969 21.9656 203.846 21.5742 203.574 21.3785C203.302 21.1584 203.031 21.0605 202.71 21.0361H202.636C202.636 21.0361 202.389 21.0361 202.216 21.085C202.044 21.1339 201.871 21.2073 201.698 21.3296C201.476 21.4764 201.278 21.6965 201.081 21.9656C200.883 22.2591 200.735 22.6505 200.637 23.1397C200.612 23.262 200.587 23.3843 200.562 23.5311Z" fill="white"/>
<path d="M210.239 26.9067C208.98 26.9067 208.116 26.6132 207.647 26.0261C207.178 25.4391 206.931 24.8275 206.906 24.1182C206.906 24.0693 206.906 24.0203 206.906 23.9714V23.8246C206.906 23.7023 206.906 23.5556 206.906 23.4333C206.906 23.2865 206.931 23.1642 206.956 23.0174C207.104 22.1368 207.524 21.3541 208.239 20.6203C208.931 19.8864 209.943 19.5195 211.276 19.5195C212.535 19.5195 213.399 19.8131 213.868 20.4001C214.337 20.9872 214.583 21.6232 214.608 22.3325C214.608 22.3815 214.608 22.4304 214.608 22.4548V22.5771C214.608 22.7239 214.608 22.8707 214.608 22.993C214.608 23.1397 214.583 23.262 214.534 23.4088C214.361 24.2649 213.942 25.0477 213.25 25.7571C212.559 26.4664 211.547 26.8089 210.239 26.8089V26.9067ZM211.695 24.9743C211.992 24.6074 212.189 24.1916 212.312 23.7513C212.386 23.5311 212.436 23.2865 212.461 23.0664C212.485 22.8462 212.51 22.6505 212.51 22.4793C212.51 22.4793 212.51 22.3081 212.51 22.1613C212.51 22.0145 212.461 21.8678 212.386 21.721C212.312 21.5253 212.164 21.3296 211.967 21.1584C211.769 20.9872 211.473 20.9138 211.078 20.9138C210.56 20.9138 210.165 21.085 209.869 21.403C209.572 21.721 209.375 22.1124 209.252 22.5038C209.153 22.7973 209.103 23.1153 209.054 23.3844C209.029 23.6779 209.005 23.8736 209.005 23.9959C209.005 24.4851 209.103 24.852 209.301 25.0722C209.498 25.2923 209.721 25.4146 209.943 25.488C210.017 25.488 210.115 25.5125 210.19 25.5369C210.264 25.5369 210.338 25.5369 210.436 25.5369C210.979 25.5369 211.399 25.3412 211.695 24.9743Z" fill="white"/>
<path d="M221.174 19.813H223.618L222.162 26.662H220.088L221.026 22.2102L217.521 26.662H215.052L216.534 19.813H218.607L217.644 24.2649L221.15 19.813H221.174Z" fill="white"/>
<path d="M225.741 24.3627C225.741 24.3627 225.741 24.4606 225.716 24.485C225.716 24.534 225.716 24.5829 225.716 24.6074V24.6807C225.716 24.9009 225.839 25.121 226.062 25.2923C226.284 25.4635 226.58 25.5613 227.024 25.5613C227.518 25.5613 227.913 25.4635 228.209 25.2433C228.481 25.0476 228.629 24.7786 228.629 24.5095C228.629 24.1915 228.53 23.9958 228.308 23.8735C228.086 23.7757 227.814 23.7023 227.518 23.7023H226.728L226.975 22.4548H227.938C228.234 22.4548 228.481 22.3569 228.678 22.2102C228.876 22.039 228.974 21.8433 228.974 21.6231V21.5253C228.974 21.3541 228.876 21.2073 228.728 21.0605C228.579 20.9138 228.308 20.8404 227.888 20.8404C227.469 20.8404 227.172 20.9138 226.95 21.085C226.728 21.2562 226.58 21.4274 226.481 21.6476C226.481 21.6965 226.457 21.7454 226.432 21.7943C226.432 21.8433 226.407 21.8922 226.382 21.9411H224.383C224.531 21.2562 224.803 20.767 225.198 20.4245C225.593 20.0821 226.012 19.8619 226.481 19.7396C226.777 19.6418 227.098 19.5929 227.395 19.5684C227.691 19.5684 227.938 19.5439 228.16 19.5439C228.333 19.5439 228.505 19.5439 228.728 19.5439C228.95 19.5439 229.172 19.5929 229.419 19.6173C229.863 19.6907 230.258 19.8619 230.604 20.1065C230.949 20.3512 231.147 20.767 231.147 21.3541C231.147 21.721 231.048 22.0145 230.875 22.2346C230.702 22.4548 230.505 22.626 230.283 22.7239C230.135 22.7972 229.986 22.8462 229.863 22.8951C229.74 22.9195 229.616 22.944 229.542 22.9685V23.0174C229.986 23.1152 230.307 23.3109 230.48 23.58C230.653 23.8491 230.727 24.1426 230.727 24.4361C230.727 24.5584 230.727 24.7297 230.678 24.9253C230.628 25.121 230.554 25.3412 230.431 25.5369C230.233 25.8549 229.863 26.1484 229.345 26.4175C228.826 26.6865 228.061 26.8333 227 26.8333C225.741 26.8333 224.901 26.6376 224.432 26.2462C223.963 25.8549 223.741 25.439 223.717 24.9498V24.852C223.717 24.852 223.717 24.6563 223.717 24.5829C223.717 24.485 223.741 24.4117 223.766 24.3138H225.716L225.741 24.3627Z" fill="white"/>
<path d="M237.046 19.813C237.812 19.813 238.33 19.9598 238.602 20.2533C238.848 20.5469 238.972 20.8649 238.972 21.2562C238.972 21.7454 238.799 22.1613 238.478 22.4793C238.133 22.7973 237.762 22.9929 237.318 23.0908C237.318 23.0908 237.441 23.1397 237.491 23.1642C237.54 23.1642 237.614 23.1886 237.664 23.2131C237.91 23.2865 238.133 23.4332 238.33 23.6534C238.527 23.8735 238.626 24.1915 238.626 24.5829C238.626 25.2434 238.429 25.7081 238.058 26.0016C237.688 26.2952 237.244 26.4909 236.8 26.5642C236.602 26.6132 236.405 26.6376 236.207 26.6376C236.01 26.6376 235.837 26.6376 235.664 26.6376H231.566L233.047 19.7886H237.046V19.813ZM233.911 25.3412H235.195C235.195 25.3412 235.343 25.3412 235.467 25.3412C235.59 25.3412 235.713 25.3167 235.837 25.2678C236.01 25.2189 236.182 25.121 236.331 24.9987C236.479 24.8764 236.553 24.7052 236.553 24.4361C236.553 24.1671 236.454 23.9714 236.256 23.8735C236.059 23.7757 235.812 23.7268 235.491 23.7268H234.257L233.911 25.3167V25.3412ZM234.504 22.5282H235.59C235.59 22.5282 235.738 22.5282 235.837 22.5282C235.936 22.5282 236.034 22.5282 236.158 22.4793C236.331 22.4303 236.503 22.357 236.651 22.2347C236.8 22.1124 236.874 21.9411 236.874 21.6965C236.874 21.4519 236.775 21.2807 236.602 21.2073C236.429 21.1339 236.182 21.1095 235.936 21.1095H234.825L234.529 22.5282H234.504Z" fill="white"/>
<path d="M243.069 26.9067C241.811 26.9067 240.947 26.6132 240.478 26.0261C240.009 25.4391 239.762 24.8275 239.737 24.1182C239.737 24.0693 239.737 24.0203 239.737 23.9714V23.8246C239.737 23.7023 239.737 23.5556 239.737 23.4333C239.737 23.2865 239.762 23.1642 239.786 23.0174C239.935 22.1368 240.354 21.3541 241.07 20.6203C241.761 19.8864 242.773 19.5195 244.106 19.5195C245.365 19.5195 246.229 19.8131 246.698 20.4001C247.167 20.9872 247.414 21.6232 247.439 22.3325C247.439 22.3815 247.439 22.4304 247.439 22.4548V22.5771C247.439 22.7239 247.439 22.8707 247.439 22.993C247.439 23.1397 247.414 23.262 247.365 23.4088C247.192 24.2649 246.772 25.0477 246.081 25.7571C245.39 26.4664 244.378 26.8089 243.069 26.8089V26.9067ZM244.551 24.9743C244.847 24.6074 245.044 24.1916 245.168 23.7513C245.242 23.5311 245.291 23.2865 245.316 23.0664C245.34 22.8462 245.365 22.6505 245.365 22.4793C245.365 22.4793 245.365 22.3081 245.365 22.1613C245.365 22.0145 245.316 21.8678 245.242 21.721C245.168 21.5253 245.02 21.3296 244.822 21.1584C244.625 20.9872 244.328 20.9138 243.933 20.9138C243.415 20.9138 243.02 21.085 242.724 21.403C242.428 21.721 242.23 22.1124 242.107 22.5038C242.008 22.7973 241.959 23.1153 241.909 23.3844C241.885 23.6779 241.86 23.8736 241.86 23.9959C241.86 24.4851 241.959 24.852 242.156 25.0722C242.354 25.2923 242.576 25.4146 242.798 25.488C242.872 25.488 242.971 25.5125 243.045 25.5369C243.119 25.5369 243.193 25.5369 243.292 25.5369C243.835 25.5369 244.254 25.3412 244.551 24.9743Z" fill="white"/>
<path d="M248.303 25.2678C248.747 24.7541 249.142 24.1426 249.487 23.4577C249.833 22.7728 250.08 21.9901 250.277 21.0605L250.549 19.7886H256.473L255.288 25.2678H256.424L255.634 28.4233H253.881L254.276 26.6376H248.994L248.599 28.4233H246.846L247.414 25.2678H248.327H248.303ZM252.178 21.1828L252.005 21.9167C251.907 22.357 251.783 22.7483 251.66 23.0908C251.536 23.4332 251.413 23.7268 251.289 23.9958C251.141 24.3138 250.993 24.5829 250.845 24.7786C250.697 24.9743 250.574 25.1455 250.45 25.2923H253.239L254.128 21.1828H252.178Z" fill="white"/>
<path d="M264.422 24.0692C264.224 24.7541 263.928 25.2922 263.582 25.6591C263.212 26.0505 262.842 26.3196 262.471 26.5153C262.126 26.662 261.805 26.7599 261.484 26.8088C261.163 26.8577 260.892 26.8822 260.694 26.8822C259.633 26.8822 258.818 26.6131 258.275 26.0994C257.732 25.5857 257.436 24.8764 257.436 23.9958C257.436 23.8979 257.436 23.8001 257.436 23.7022C257.436 23.6044 257.436 23.5066 257.46 23.4087C257.559 22.4547 257.954 21.5742 258.621 20.7669C259.287 19.9597 260.299 19.5684 261.657 19.5684C262.62 19.5684 263.311 19.7396 263.755 20.0576C264.199 20.3756 264.471 20.718 264.619 21.1094C264.668 21.2562 264.718 21.4029 264.742 21.5742C264.767 21.7454 264.767 21.8677 264.767 21.99V22.1368C264.767 22.1368 264.767 22.2346 264.767 22.2591H262.792C262.792 22.2591 262.792 22.1857 262.792 22.1368V21.99C262.792 21.99 262.792 21.9166 262.792 21.8677C262.792 21.8188 262.792 21.7943 262.792 21.7454C262.768 21.5497 262.669 21.354 262.496 21.1828C262.348 21.0116 262.052 20.9382 261.682 20.9382C261.138 20.9382 260.719 21.1339 260.398 21.5252C260.102 21.9166 259.88 22.3324 259.756 22.7972C259.707 23.0173 259.657 23.213 259.633 23.4087C259.608 23.6044 259.583 23.8001 259.583 23.9713C259.583 24.0692 259.583 24.1425 259.583 24.2404C259.583 24.3382 259.608 24.4361 259.633 24.5339C259.682 24.7785 259.806 24.9987 260.003 25.2188C260.2 25.439 260.497 25.5368 260.892 25.5368C260.966 25.5368 261.064 25.5368 261.213 25.4879C261.361 25.4879 261.509 25.3901 261.657 25.2922C261.805 25.1944 261.953 25.0476 262.076 24.8519C262.2 24.6562 262.323 24.4116 262.397 24.0936H264.446L264.422 24.0692Z" fill="white"/>
<path d="M265.68 21.1828L265.977 19.813H272.592L272.296 21.2073H270.025L268.84 26.662H266.767L267.951 21.1828H265.68Z" fill="white"/>
<path d="M277.628 19.813C278.393 19.813 278.912 19.9598 279.183 20.2533C279.43 20.5469 279.553 20.8649 279.553 21.2562C279.553 21.7454 279.381 22.1613 279.06 22.4793C278.714 22.7973 278.344 22.9929 277.899 23.0908C277.899 23.0908 278.023 23.1397 278.072 23.1642C278.122 23.1642 278.196 23.1886 278.245 23.2131C278.492 23.2865 278.714 23.4332 278.912 23.6534C279.109 23.8735 279.208 24.1915 279.208 24.5829C279.208 25.2434 279.01 25.7081 278.64 26.0016C278.27 26.2952 277.825 26.4909 277.381 26.5642C277.184 26.6132 276.986 26.6376 276.789 26.6376C276.591 26.6376 276.418 26.6376 276.246 26.6376H272.148L273.629 19.7886H277.628V19.813ZM274.493 25.3412H275.777C275.777 25.3412 275.925 25.3412 276.048 25.3412C276.172 25.3412 276.295 25.3167 276.418 25.2678C276.591 25.2189 276.764 25.121 276.912 24.9987C277.06 24.8764 277.134 24.7052 277.134 24.4361C277.134 24.1671 277.036 23.9714 276.838 23.8735C276.641 23.7757 276.394 23.7268 276.073 23.7268H274.839L274.493 25.3167V25.3412ZM275.085 22.5282H276.172C276.172 22.5282 276.32 22.5282 276.418 22.5282C276.517 22.5282 276.616 22.5282 276.739 22.4793C276.912 22.4303 277.085 22.357 277.233 22.2347C277.381 22.1124 277.455 21.9411 277.455 21.6965C277.455 21.4519 277.356 21.2807 277.184 21.2073C277.011 21.1339 276.764 21.1095 276.517 21.1095H275.406L275.11 22.5282H275.085Z" fill="white"/>
<path d="M287.378 24.6562C287.378 24.6562 287.28 24.9008 287.181 25.0965C287.082 25.2922 286.934 25.4879 286.737 25.708C286.465 26.0016 286.07 26.2462 285.576 26.4908C285.083 26.7354 284.416 26.8332 283.602 26.8332C282.441 26.8332 281.652 26.5886 281.183 26.0994C280.714 25.6102 280.442 25.0721 280.368 24.4605C280.368 24.3627 280.343 24.2649 280.343 24.1915C280.343 24.0936 280.343 23.9958 280.343 23.9224C280.343 23.7512 280.343 23.5555 280.368 23.3843C280.368 23.213 280.417 23.0173 280.467 22.8217C280.664 22.0144 281.108 21.2562 281.775 20.5957C282.441 19.9108 283.429 19.5684 284.712 19.5684C285.65 19.5684 286.416 19.7885 287.033 20.2043C287.65 20.6202 287.946 21.354 287.946 22.3569C287.946 22.5526 287.946 22.7727 287.897 22.9929C287.872 23.213 287.823 23.4332 287.773 23.6533H282.491C282.491 23.6533 282.491 23.8246 282.466 23.8979C282.466 23.9958 282.466 24.0936 282.466 24.1915C282.466 24.2404 282.466 24.2893 282.466 24.3138C282.466 24.3627 282.466 24.3872 282.466 24.4361C282.491 24.7051 282.614 24.9742 282.812 25.2188C283.009 25.4634 283.355 25.5857 283.848 25.5857C284.169 25.5857 284.466 25.5124 284.762 25.3411C285.033 25.1699 285.231 24.9498 285.354 24.6562H287.452H287.378ZM285.848 22.577C285.848 22.577 285.848 22.5526 285.848 22.5281C285.848 22.5037 285.848 22.4547 285.848 22.4303C285.848 22.4058 285.848 22.3569 285.848 22.3324C285.848 22.308 285.848 22.2591 285.848 22.2101C285.848 22.1857 285.848 22.1368 285.848 22.1123V22.0144C285.848 21.5986 285.725 21.3295 285.453 21.1583C285.181 20.9871 284.885 20.9137 284.515 20.9137C284.416 20.9137 284.268 20.9137 284.12 20.9626C283.972 20.9871 283.824 21.036 283.676 21.1094C283.478 21.2072 283.281 21.4029 283.083 21.6231C282.886 21.8432 282.738 22.1857 282.614 22.626H285.774L285.848 22.577Z" fill="white"/>
<path d="M290.489 26.6376H288.415L289.896 19.7886H291.97L291.427 22.357H293.92L294.463 19.7886H296.536L295.055 26.6376H292.982L293.599 23.7512H291.106L290.489 26.6376Z" fill="white"/>
<path d="M298.758 26.6376H296.684L298.165 19.7886H300.239L299.696 22.357H302.189L302.732 19.7886H304.806L303.324 26.6376H301.251L301.868 23.7512H299.375L298.758 26.6376Z" fill="white"/>
<path d="M308.484 19.813L307.94 22.3325H309.224C309.372 22.3325 309.545 22.3325 309.718 22.3325C309.915 22.3325 310.113 22.3325 310.31 22.3814C310.68 22.4548 311.026 22.626 311.322 22.8706C311.618 23.1152 311.791 23.531 311.791 24.1181C311.791 24.2404 311.791 24.4116 311.742 24.6318C311.693 24.8519 311.643 25.0476 311.544 25.2433C311.372 25.5858 311.075 25.9282 310.656 26.2217C310.236 26.5153 309.594 26.662 308.755 26.662H304.929L306.41 19.813H308.484ZM307.299 25.3411H308.237C308.681 25.3411 309.002 25.2678 309.199 25.1455C309.397 25.0232 309.52 24.8764 309.594 24.7296C309.619 24.6807 309.644 24.6073 309.668 24.5339C309.668 24.4606 309.668 24.4116 309.668 24.3627C309.668 24.167 309.594 23.9713 309.422 23.8001C309.249 23.6289 308.977 23.5555 308.558 23.5555H307.669L307.299 25.3167V25.3411ZM315.691 19.813L314.21 26.662H312.038L313.495 19.813H315.691Z" fill="white"/>
<path d="M321.961 19.8132H324.405L322.949 26.6622H320.875L321.813 22.2103L318.308 26.6622H315.84L317.321 19.8132H319.394L318.431 24.265L321.937 19.8132H321.961ZM320.184 17.2203C320.184 17.2203 320.184 17.2448 320.184 17.2692C320.184 17.2692 320.184 17.2937 320.184 17.3182V17.416C320.184 17.6117 320.258 17.7584 320.431 17.9052C320.604 18.052 320.875 18.1009 321.27 18.1009C321.665 18.1009 321.937 18.0275 322.134 17.8563C322.307 17.7095 322.455 17.5383 322.529 17.3426C322.529 17.3182 322.529 17.2937 322.529 17.2692C322.529 17.2448 322.529 17.2203 322.529 17.1958H324.035C323.887 17.6606 323.665 18.0275 323.368 18.2966C323.072 18.5657 322.727 18.7369 322.406 18.8347C322.159 18.9326 321.912 18.9815 321.665 19.006C321.418 19.006 321.221 19.0549 321.048 19.0549C320.283 19.0549 319.715 18.9326 319.394 18.7124C319.049 18.4923 318.851 18.2477 318.752 17.9786C318.728 17.8808 318.703 17.7829 318.678 17.6851C318.678 17.5872 318.678 17.5138 318.678 17.416V17.2937C318.678 17.2937 318.678 17.2203 318.678 17.1714H320.184V17.2203Z" fill="white"/>
<path d="M334.007 25.2678L335.168 19.7886H337.241L336.032 25.2678H337.192L336.402 28.4233H334.625L335.02 26.6376H329.071L330.552 19.7886H332.625L331.44 25.2678H334.007Z" fill="white"/>
<path d="M345.239 24.6562C345.239 24.6562 345.14 24.9008 345.042 25.0965C344.943 25.2922 344.795 25.4879 344.597 25.708C344.326 26.0016 343.931 26.2462 343.437 26.4908C342.943 26.7354 342.277 26.8332 341.462 26.8332C340.302 26.8332 339.512 26.5886 339.043 26.0994C338.574 25.6102 338.303 25.0721 338.229 24.4605C338.229 24.3627 338.204 24.2649 338.204 24.1915C338.204 24.0936 338.204 23.9958 338.204 23.9224C338.204 23.7512 338.204 23.5555 338.229 23.3843C338.229 23.213 338.278 23.0173 338.327 22.8217C338.525 22.0144 338.969 21.2562 339.636 20.5957C340.302 19.9108 341.289 19.5684 342.573 19.5684C343.511 19.5684 344.276 19.7885 344.893 20.2043C345.511 20.6202 345.807 21.354 345.807 22.3569C345.807 22.5526 345.807 22.7727 345.757 22.9929C345.733 23.213 345.683 23.4332 345.634 23.6533H340.351C340.351 23.6533 340.351 23.8246 340.327 23.8979C340.327 23.9958 340.327 24.0936 340.327 24.1915C340.327 24.2404 340.327 24.2893 340.327 24.3138C340.327 24.3627 340.327 24.3872 340.327 24.4361C340.351 24.7051 340.475 24.9742 340.672 25.2188C340.87 25.4634 341.215 25.5857 341.709 25.5857C342.03 25.5857 342.326 25.5124 342.622 25.3411C342.894 25.1699 343.091 24.9498 343.215 24.6562H345.313H345.239ZM343.684 22.577C343.684 22.577 343.684 22.5526 343.684 22.5281C343.684 22.5037 343.684 22.4547 343.684 22.4303C343.684 22.4058 343.684 22.3569 343.684 22.3324C343.684 22.308 343.684 22.2591 343.684 22.2101C343.684 22.1857 343.684 22.1368 343.684 22.1123V22.0144C343.684 21.5986 343.56 21.3295 343.289 21.1583C343.017 20.9871 342.721 20.9137 342.351 20.9137C342.252 20.9137 342.104 20.9137 341.956 20.9626C341.808 20.9871 341.66 21.036 341.512 21.1094C341.314 21.2072 341.117 21.4029 340.919 21.6231C340.722 21.8432 340.574 22.1857 340.45 22.626H343.61L343.684 22.577Z" fill="white"/>
<path d="M348.349 26.6376H346.276L347.757 19.7886H349.83L349.287 22.357H351.781L352.324 19.7886H354.397L352.916 26.6376H350.843L351.46 23.7512H348.966L348.349 26.6376Z" fill="white"/>
<path d="M355.063 21.1828L355.36 19.813H361.975L361.679 21.2073H359.408L358.223 26.662H356.15L357.334 21.1828H355.063Z" fill="white"/>
<path d="M364.839 19.813L364.666 20.5224H364.715C365.184 20.1065 365.628 19.8375 366.048 19.7152C366.468 19.5929 366.838 19.5439 367.159 19.5439C367.998 19.5439 368.615 19.813 369.06 20.3022C369.504 20.7915 369.726 21.4764 369.726 22.2591C369.726 22.4793 369.726 22.6994 369.677 22.944C369.652 23.1886 369.603 23.4088 369.529 23.6534C369.306 24.4606 368.912 25.1944 368.294 25.8549C367.702 26.5153 366.863 26.8333 365.801 26.8333C365.382 26.8333 364.987 26.7599 364.592 26.6131C364.221 26.4664 363.925 26.2462 363.728 25.9527L363.061 29.1326H360.988L362.987 19.813H364.839ZM364.147 23.5311C364.147 23.6534 364.123 23.8001 364.123 23.9224C364.123 24.3872 364.246 24.7541 364.468 25.0232C364.69 25.2923 365.011 25.4146 365.456 25.4146C365.974 25.4146 366.394 25.2433 366.69 24.8764C366.986 24.534 367.208 24.1426 367.356 23.7268C367.43 23.5066 367.48 23.2865 367.505 23.0908C367.529 22.8706 367.554 22.6994 367.554 22.5282C367.554 21.9656 367.43 21.5742 367.159 21.3785C366.887 21.1584 366.616 21.0605 366.295 21.0361H366.221C366.221 21.0361 365.974 21.0361 365.801 21.085C365.628 21.1339 365.456 21.2073 365.283 21.3296C365.061 21.4764 364.863 21.6965 364.666 21.9656C364.468 22.2591 364.32 22.6505 364.221 23.1397C364.197 23.262 364.172 23.3843 364.147 23.5311Z" fill="white"/>
<path d="M139.69 36.104L138.925 39.7731L136.383 41.6811L138.135 43.4667L137.469 46.6222L134.358 43.1732L135.124 39.5775L139.715 36.104H139.69ZM144.603 36.104L143.837 39.7731L141.295 41.6811L143.047 43.4667L142.381 46.6222L139.271 43.1732L140.036 39.5775L144.627 36.104H144.603Z" fill="white"/>
<path d="M158.426 30.3804L161.363 48.1634H156.969L156.525 44.8368H150.008L148.157 48.1634H143.615L154.155 30.3804H158.426ZM156.229 41.8036L155.34 35.0279L151.539 41.8036H156.229Z" fill="white"/>
<path d="M173.039 35.2481C174.496 35.2481 175.483 35.5172 175.952 36.0553C176.421 36.5934 176.668 37.2294 176.668 37.9388C176.668 38.8928 176.347 39.6511 175.73 40.2626C175.113 40.8741 174.372 41.241 173.557 41.4122V41.4856C173.557 41.4856 173.755 41.5101 173.878 41.5345C174.002 41.5345 174.101 41.5835 174.224 41.6324C174.693 41.7792 175.113 42.0482 175.508 42.4641C175.903 42.8799 176.1 43.467 176.1 44.2252C176.1 45.4483 175.73 46.3533 175.014 46.8915C174.298 47.4296 173.483 47.7965 172.619 47.9678C172.225 48.0411 171.854 48.0901 171.484 48.1145C171.114 48.139 170.768 48.139 170.472 48.139H162.721L165.51 35.2236H173.088L173.039 35.2481ZM167.09 45.7174H169.534C169.534 45.7174 169.805 45.7174 170.052 45.7174C170.274 45.7174 170.521 45.6684 170.743 45.5951C171.089 45.4972 171.385 45.326 171.657 45.1058C171.928 44.8857 172.076 44.5188 172.076 44.054C172.076 43.5159 171.904 43.1734 171.533 43.0022C171.163 42.831 170.694 42.7331 170.102 42.7331H167.757L167.115 45.7174H167.09ZM168.226 40.3604H170.25C170.373 40.3604 170.546 40.3604 170.743 40.3604C170.941 40.3604 171.138 40.3115 171.361 40.2626C171.706 40.1892 172.002 40.0424 172.299 39.8223C172.57 39.6021 172.718 39.2597 172.718 38.7705C172.718 38.2812 172.545 38.0122 172.2 37.8654C171.854 37.7186 171.435 37.6697 170.941 37.6697H168.843L168.275 40.3604H168.226Z" fill="white"/>
<path d="M189.01 35.248H193.626L190.861 48.1634H186.961L188.763 39.7733L182.148 48.1634H177.507L180.296 35.248H184.197L182.395 43.6381L189.035 35.248H189.01Z" fill="white"/>
<path d="M195.798 39.4061C195.823 39.2349 195.872 39.0881 195.922 38.9169C195.971 38.7457 196.045 38.5745 196.119 38.4032C196.514 37.5226 197.23 36.7154 198.267 35.9816C199.304 35.2478 200.933 34.8809 203.13 34.8809C205.08 34.8809 206.413 35.1744 207.104 35.737C207.795 36.2996 208.215 36.96 208.289 37.6449C208.289 37.7183 208.289 37.8162 208.289 37.8895C208.289 37.9874 208.289 38.0608 208.289 38.1342C208.289 38.3788 208.289 38.6478 208.239 38.8924C208.19 39.1371 208.165 39.3572 208.116 39.5529L206.808 45.448C206.808 45.448 206.783 45.6437 206.758 45.717C206.758 45.7904 206.709 45.8883 206.684 45.9616C206.66 46.084 206.635 46.1818 206.61 46.3286C206.61 46.4509 206.61 46.6221 206.61 46.8422V47.3315C206.61 47.3315 206.61 47.4293 206.61 47.4782C206.61 47.5761 206.66 47.6739 206.734 47.7718C206.808 47.8696 206.882 47.9674 207.03 48.0653V48.1631H202.932L202.858 46.8912H202.784C202.562 47.1113 202.34 47.307 202.093 47.4782C201.846 47.6494 201.624 47.7718 201.377 47.9185C200.711 48.212 200.069 48.4077 199.501 48.4567C198.909 48.53 198.514 48.5545 198.316 48.5545C198.143 48.5545 197.971 48.5545 197.773 48.5545C197.6 48.5545 197.428 48.5545 197.23 48.5056C196.465 48.4077 195.774 48.1387 195.157 47.7228C194.539 47.2825 194.219 46.5242 194.219 45.399C194.219 43.7846 194.811 42.6839 195.971 42.0724C197.131 41.4608 198.415 41.045 199.822 40.8249C200.093 40.8004 200.365 40.7515 200.661 40.727C200.957 40.7026 201.229 40.6536 201.5 40.6292C201.624 40.6292 201.723 40.6047 201.821 40.6047C201.92 40.6047 202.019 40.6047 202.118 40.5802C202.932 40.4824 203.525 40.3356 203.895 40.1155C204.265 39.8953 204.463 39.4061 204.463 38.6478C204.463 38.2809 204.364 38.0119 204.142 37.8406C203.92 37.6694 203.697 37.5471 203.426 37.4982C203.302 37.4737 203.179 37.4493 203.031 37.4493C202.907 37.4493 202.784 37.4493 202.685 37.4493C201.871 37.4493 201.278 37.6205 200.859 37.9385C200.439 38.2565 200.167 38.6234 199.995 39.0392C199.97 39.1126 199.945 39.2104 199.921 39.2838C199.921 39.3572 199.871 39.455 199.871 39.5284H195.798V39.4061ZM203.796 41.999C203.599 42.0968 203.401 42.1702 203.228 42.2436C203.056 42.317 202.907 42.3659 202.735 42.3904C202.661 42.4148 202.562 42.4393 202.463 42.4637C202.364 42.4637 202.266 42.4882 202.142 42.5127C202.044 42.5127 201.945 42.5371 201.821 42.5616C201.698 42.5616 201.575 42.6105 201.451 42.6105C201.278 42.635 201.081 42.6839 200.883 42.7083C200.686 42.7573 200.464 42.8062 200.242 42.8551C199.773 42.9774 199.328 43.1976 198.933 43.5156C198.538 43.8335 198.316 44.2983 198.316 44.9098C198.316 45.3501 198.489 45.6681 198.835 45.8638C199.18 46.0595 199.575 46.1573 200.019 46.1573C200.217 46.1573 200.464 46.1329 200.785 46.0595C201.106 45.9861 201.426 45.8393 201.772 45.6437C202.118 45.399 202.463 45.0566 202.809 44.6163C203.154 44.176 203.401 43.5645 203.574 42.7817L203.771 41.9745L203.796 41.999Z" fill="white"/>
<path d="M210.51 37.8165L211.078 35.2236H223.593L223.001 37.841H218.73L216.509 48.139H212.609L214.83 37.8165H210.535H210.51Z" fill="white"/>
<path d="M236.627 44.4207C236.553 44.592 236.429 44.861 236.257 45.228C236.084 45.5949 235.788 45.9862 235.417 46.4021C234.899 46.9402 234.183 47.4294 233.245 47.8942C232.307 48.3345 231.073 48.5546 229.518 48.5546C227.345 48.5546 225.815 48.0899 224.926 47.1604C224.038 46.2309 223.519 45.2035 223.371 44.0783C223.346 43.9071 223.322 43.7358 223.322 43.5402C223.322 43.3689 223.322 43.1977 223.322 43.002C223.322 42.6596 223.322 42.3171 223.371 41.9747C223.421 41.6322 223.47 41.2898 223.544 40.9228C223.914 39.3818 224.729 37.9875 226.012 36.7156C227.296 35.4436 229.123 34.8076 231.542 34.8076C233.319 34.8076 234.775 35.199 235.911 36.0062C237.046 36.8134 237.639 38.1588 237.639 40.0667C237.639 40.4581 237.614 40.8495 237.565 41.2653C237.515 41.6811 237.417 42.0725 237.318 42.4883H227.345C227.345 42.6351 227.321 42.7819 227.296 42.9776C227.296 43.1488 227.271 43.3445 227.271 43.5402C227.271 43.6135 227.271 43.7114 227.271 43.7848C227.271 43.8581 227.271 43.9315 227.271 44.0294C227.345 44.5675 227.543 45.0567 227.913 45.497C228.283 45.9373 228.925 46.1575 229.839 46.1575C230.456 46.1575 231.023 46.0107 231.566 45.6927C232.109 45.3992 232.48 44.9589 232.677 44.4207H236.627ZM233.714 40.4825C233.714 40.4825 233.714 40.4336 233.714 40.3847C233.714 40.3358 233.714 40.2624 233.739 40.189C233.739 40.1156 233.739 40.0667 233.739 39.9933C233.739 39.9199 233.739 39.8466 233.739 39.7732C233.739 39.6998 233.739 39.6509 233.739 39.5775V39.3818C233.739 38.6235 233.492 38.0854 232.998 37.7674C232.504 37.4494 231.912 37.3026 231.221 37.3026C231.023 37.3026 230.777 37.3026 230.505 37.376C230.233 37.4249 229.962 37.5228 229.69 37.6695C229.295 37.8897 228.925 38.2077 228.58 38.648C228.234 39.0883 227.938 39.7243 227.716 40.5315H233.665L233.714 40.4825Z" fill="white"/>
<path d="M248.846 35.248H253.536L247.562 41.6568L250.796 48.1879H246.649L244.896 44.2986L241.712 48.1879H237.046L243.341 41.3388L240.157 35.2725H244.402L245.933 38.9661L248.846 35.2725V35.248Z" fill="white"/>
<path d="M256.449 48.1634H252.548L255.338 35.248H259.238L258.201 40.1158H262.891L263.928 35.248H267.828L265.039 48.1634H261.139L262.323 42.7086H257.633L256.449 48.1634Z" fill="white"/>
<path d="M275.036 48.6281C272.642 48.6281 271.012 48.0655 270.148 46.9892C269.285 45.9129 268.816 44.7143 268.741 43.4179C268.741 43.3445 268.741 43.2467 268.741 43.1488V42.8553C268.741 42.6107 268.741 42.3661 268.766 42.1215C268.791 41.8769 268.816 41.6078 268.84 41.3632C269.136 39.7243 269.926 38.2077 271.259 36.8379C272.568 35.4681 274.493 34.7832 277.011 34.7832C279.529 34.7832 281.034 35.3458 281.898 36.4465C282.787 37.5473 283.256 38.7703 283.305 40.0912C283.305 40.1646 283.305 40.2624 283.305 40.3358V40.5804C283.305 40.8495 283.305 41.1186 283.281 41.3876C283.256 41.6567 283.207 41.9258 283.157 42.1949C282.861 43.8337 282.046 45.3014 280.713 46.6467C279.381 47.9676 277.504 48.6525 275.036 48.6525V48.6281ZM277.801 45.0079C278.368 44.323 278.739 43.5402 278.986 42.6841C279.109 42.2438 279.208 41.8279 279.257 41.4121C279.306 40.9963 279.331 40.6049 279.331 40.2869C279.331 40.1646 279.331 39.9689 279.331 39.6998C279.331 39.4308 279.232 39.1617 279.109 38.8437C278.961 38.4523 278.714 38.1099 278.344 37.7919C277.973 37.4739 277.406 37.3271 276.641 37.3271C275.653 37.3271 274.888 37.6451 274.37 38.2567C273.826 38.8682 273.456 39.5775 273.209 40.3358C273.037 40.8984 272.913 41.461 272.864 41.9992C272.814 42.5373 272.79 42.9042 272.79 43.1488C272.79 44.0783 272.963 44.7632 273.333 45.1546C273.703 45.546 274.098 45.8151 274.542 45.9129C274.715 45.9374 274.863 45.9618 275.011 45.9863C275.159 46.0108 275.308 45.9863 275.456 45.9863C276.492 45.9863 277.282 45.6438 277.85 44.9345L277.801 45.0079Z" fill="white"/>
<path d="M283.009 48.2124L283.601 45.5461C283.725 45.5461 283.848 45.5706 283.947 45.5706C284.046 45.5706 284.145 45.5706 284.243 45.5706C285.28 45.5706 286.021 45.1058 286.465 44.2008C286.909 43.2713 287.279 42.1461 287.625 40.7518L288.909 35.2236H300.017L297.252 48.139H293.352L295.549 37.8165H292.068L291.426 40.7273C291.352 41.1187 291.254 41.5101 291.155 41.9259C291.056 42.3418 290.957 42.7576 290.809 43.1734C290.414 44.4943 289.797 45.6684 288.958 46.7447C288.119 47.821 286.761 48.3591 284.86 48.3591C284.589 48.3591 284.293 48.3591 283.996 48.3102C283.7 48.2858 283.379 48.2368 283.034 48.1634L283.009 48.2124Z" fill="white"/>
<path d="M307.2 48.6281C304.806 48.6281 303.177 48.0655 302.313 46.9892C301.449 45.9129 300.98 44.7143 300.906 43.4179C300.906 43.3445 300.906 43.2467 300.906 43.1488V42.8553C300.906 42.6107 300.906 42.3661 300.93 42.1215C300.955 41.8769 300.98 41.6078 301.004 41.3632C301.3 39.7243 302.09 38.2077 303.423 36.8379C304.732 35.4681 306.657 34.7832 309.175 34.7832C311.693 34.7832 313.198 35.3458 314.062 36.4465C314.951 37.5473 315.42 38.7703 315.469 40.0912C315.469 40.1646 315.469 40.2624 315.469 40.3358V40.5804C315.469 40.8495 315.469 41.1186 315.445 41.3876C315.42 41.6567 315.371 41.9258 315.321 42.1949C315.025 43.8337 314.211 45.3014 312.878 46.6467C311.545 47.9676 309.669 48.6525 307.2 48.6525V48.6281ZM309.965 45.0079C310.533 44.323 310.903 43.5402 311.15 42.6841C311.273 42.2438 311.372 41.8279 311.421 41.4121C311.471 40.9963 311.495 40.6049 311.495 40.2869C311.495 40.1646 311.495 39.9689 311.495 39.6998C311.495 39.4308 311.396 39.1617 311.273 38.8437C311.125 38.4523 310.878 38.1099 310.508 37.7919C310.138 37.4739 309.57 37.3271 308.805 37.3271C307.817 37.3271 307.052 37.6451 306.534 38.2567C305.991 38.8682 305.62 39.5775 305.373 40.3358C305.201 40.8984 305.077 41.461 305.028 41.9992C304.978 42.5373 304.954 42.9042 304.954 43.1488C304.954 44.0783 305.127 44.7632 305.497 45.1546C305.867 45.546 306.262 45.8151 306.706 45.9129C306.879 45.9374 307.027 45.9618 307.175 45.9863C307.324 46.0108 307.472 45.9863 307.62 45.9863C308.656 45.9863 309.446 45.6438 310.014 44.9345L309.965 45.0079Z" fill="white"/>
<path d="M320.357 48.1634H316.383L319.172 35.248H329.169L328.577 37.9387H322.554L320.357 48.1634Z" fill="white"/>
<path d="M339.784 35.248H344.4L341.635 48.1634H337.735L339.537 39.7733L332.921 48.1634H328.281L331.07 35.248H334.97L333.168 43.6381L339.808 35.248H339.784Z" fill="white"/>
<path d="M356.224 35.248H360.84L358.075 48.1634H354.175L355.977 39.7733L349.361 48.1634H344.721L347.51 35.248H351.41L349.608 43.6381L356.248 35.248H356.224Z" fill="white"/>
<path d="M361.728 46.6466L362.494 42.9775L365.036 41.1429L363.283 39.3328L363.95 36.1284L367.06 39.5774L366.295 43.1732L361.704 46.6466H361.728ZM366.641 46.6466L367.406 42.9775L369.948 41.1429L368.196 39.3328L368.862 36.1284L371.972 39.5774L371.207 43.1732L366.616 46.6466H366.641Z" fill="white"/>
<path d="M181.037 7.19168L179.655 9.53993H178.396L183.703 0.416016H185.036L186.566 9.53993H185.283L184.888 7.19168H181.012H181.037ZM181.605 6.13987H184.789L184.147 1.66352L181.605 6.13987Z" fill="white"/>
<path d="M189.257 5.89536L192.515 2.91113H193.996L190.343 6.06659L192.836 9.51558H191.479L189.208 6.21335L188.492 9.51558H187.332L188.763 2.91113H189.923L189.282 5.89536H189.257Z" fill="white"/>
<path d="M195.033 8.73283H198.366L199.625 2.91113H200.785L199.526 8.73283H200.711L200.044 11.2278H199.081L199.476 9.51557H193.676L195.107 2.91113H196.267L195.058 8.73283H195.033Z" fill="white"/>
<path d="M202.883 8.19464L207.301 2.93555H208.758L207.351 9.53999H206.191L207.326 4.2809L202.908 9.53999H201.427L202.858 2.93555H204.018L202.883 8.19464Z" fill="white"/>
<path d="M209.449 6.01765C209.647 5.08813 210.066 4.32984 210.659 3.74278C211.35 3.03342 212.238 2.6665 213.325 2.6665C213.695 2.6665 214.065 2.69096 214.485 2.81327C214.904 2.91111 215.299 3.18018 215.62 3.59602C215.966 4.01185 216.114 4.62338 216.089 5.43058C216.089 6.50686 215.768 7.46084 215.151 8.31697C214.732 8.87957 214.287 9.27094 213.794 9.46663C213.3 9.66232 212.757 9.76016 212.115 9.78462C211.251 9.78462 210.585 9.56448 210.091 9.12418C209.597 8.68388 209.35 7.99898 209.35 7.09393C209.35 6.94716 209.4 6.58025 209.474 6.04211L209.449 6.01765ZM210.634 6.33564C210.585 6.60471 210.56 6.84932 210.56 7.06946C210.56 7.85221 210.733 8.36589 211.078 8.6105C211.424 8.85511 211.794 8.97741 212.164 8.97741C213.053 8.97741 213.744 8.56158 214.213 7.75437C214.608 7.11839 214.806 6.33564 214.83 5.43058C214.855 4.62338 214.682 4.1097 214.312 3.86509C213.942 3.62048 213.571 3.49817 213.176 3.49817C212.461 3.49817 211.893 3.76724 211.449 4.30538C211.029 4.84352 210.733 5.52843 210.585 6.3601L210.634 6.33564Z" fill="white"/>
<path d="M218.484 6.4335L217.817 9.51558H216.632L218.064 2.91113H219.224L218.656 5.65075H221.964L222.532 2.91113H223.741L222.285 9.51558H221.125L221.791 6.4335H218.508H218.484Z" fill="white"/>
<path d="M229.37 7.60756H230.53C230.011 8.97737 228.999 9.68673 227.518 9.7112C226.728 9.76012 226.012 9.63781 225.395 9.29536C224.778 8.95291 224.433 8.268 224.383 7.19172C224.383 6.87373 224.383 6.53128 224.482 6.1399C224.556 5.74853 224.655 5.38162 224.803 5.0147C224.951 4.64779 225.149 4.3298 225.371 4.01181C225.84 3.44921 226.358 3.10675 226.926 2.93553C227.494 2.7643 228.012 2.69092 228.555 2.69092C230.184 2.7643 230.999 3.54705 230.999 5.03916C230.999 5.38162 230.949 5.84637 230.875 6.48236H225.667C225.519 6.99604 225.568 7.50971 225.741 8.02339C226.012 8.63492 226.531 8.92845 227.271 8.92845C228.259 8.92845 228.975 8.51261 229.37 7.60756ZM225.79 5.65069H229.765C229.814 5.40608 229.839 5.18593 229.839 5.03916C229.863 4.01181 229.37 3.52259 228.358 3.52259C227.617 3.47367 226.975 3.74274 226.481 4.3298C226.161 4.72117 225.938 5.16147 225.815 5.67515L225.79 5.65069Z" fill="white"/>
<path d="M232.973 2.91072H234.084L233.887 3.81577H233.936C234.603 3.00856 235.442 2.61719 236.454 2.61719C237.195 2.61719 237.787 2.83734 238.182 3.27763C238.577 3.71793 238.799 4.35391 238.774 5.18558C238.774 6.2374 238.478 7.26476 237.861 8.24319C237.195 9.22163 236.256 9.71085 235.072 9.71085C233.986 9.71085 233.294 9.34393 232.973 8.58565L232.258 11.9368H231.097L233.023 2.91072H232.973ZM233.344 6.26186C233.27 6.48201 233.245 6.75108 233.245 7.09353C233.245 7.85182 233.418 8.34104 233.788 8.58565C234.158 8.83025 234.504 8.95256 234.825 8.95256C235.713 8.97702 236.429 8.51226 236.948 7.53383C237.343 6.87338 237.515 6.06617 237.515 5.16112C237.515 3.987 236.972 3.4244 235.862 3.49778C234.603 3.5467 233.763 4.47622 233.344 6.28632V6.26186Z" fill="white"/>
<path d="M241.169 6.4335L240.502 9.51558H239.317L240.749 2.91113H241.909L241.342 5.65075H244.649L245.217 2.91113H246.427L244.97 9.51558H243.81L244.476 6.4335H241.193H241.169Z" fill="white"/>
<path d="M247.068 6.01765C247.266 5.08813 247.686 4.32984 248.278 3.74278C248.969 3.03342 249.858 2.6665 250.944 2.6665C251.314 2.6665 251.684 2.69096 252.104 2.81327C252.524 2.91111 252.919 3.18018 253.24 3.59602C253.585 4.01185 253.733 4.62338 253.709 5.43058C253.709 6.50686 253.388 7.46084 252.771 8.31697C252.351 8.87957 251.907 9.27094 251.413 9.46663C250.919 9.66232 250.376 9.76016 249.734 9.78462C248.87 9.78462 248.204 9.56448 247.71 9.12418C247.217 8.68388 246.97 7.99898 246.97 7.09393C246.97 6.94716 247.019 6.58025 247.093 6.04211L247.068 6.01765ZM248.253 6.33564C248.204 6.60471 248.179 6.84932 248.179 7.06946C248.179 7.85221 248.352 8.36589 248.698 8.6105C249.043 8.85511 249.414 8.97741 249.784 8.97741C250.672 8.97741 251.364 8.56158 251.833 7.75437C252.228 7.11839 252.425 6.33564 252.45 5.43058C252.474 4.62338 252.302 4.1097 251.931 3.86509C251.561 3.62048 251.191 3.49817 250.796 3.49817C250.08 3.49817 249.512 3.76724 249.068 4.30538C248.648 4.84352 248.352 5.52843 248.204 6.3601L248.253 6.33564Z" fill="white"/>
<path d="M259.509 7.60756H260.67C260.151 8.97737 259.139 9.68673 257.658 9.7112C256.868 9.76012 256.152 9.63781 255.535 9.29536C254.918 8.95291 254.573 8.268 254.523 7.19172C254.523 6.87373 254.523 6.53128 254.622 6.1399C254.696 5.74853 254.795 5.38162 254.943 5.0147C255.091 4.64779 255.288 4.3298 255.511 4.01181C255.98 3.44921 256.498 3.10675 257.066 2.93553C257.633 2.7643 258.152 2.69092 258.695 2.69092C260.324 2.7643 261.139 3.54705 261.139 5.03916C261.139 5.38162 261.089 5.84637 261.015 6.48236H255.807C255.659 6.99604 255.708 7.50971 255.881 8.02339C256.152 8.63492 256.671 8.92845 257.411 8.92845C258.399 8.92845 259.115 8.51261 259.509 7.60756ZM255.955 5.65069H259.929C259.978 5.40608 260.003 5.18593 260.003 5.03916C260.028 4.01181 259.534 3.52259 258.522 3.52259C257.782 3.47367 257.14 3.74274 256.646 4.3298C256.325 4.72117 256.103 5.16147 255.98 5.67515L255.955 5.65069Z" fill="white"/>
<path d="M266.322 6.01765C266.52 5.08813 266.939 4.32984 267.532 3.74278C268.223 3.03342 269.112 2.6665 270.198 2.6665C270.568 2.6665 270.938 2.69096 271.358 2.81327C271.778 2.91111 272.173 3.18018 272.494 3.59602C272.839 4.01185 272.987 4.62338 272.963 5.43058C272.963 6.50686 272.642 7.46084 272.025 8.31697C271.605 8.87957 271.161 9.27094 270.667 9.46663C270.173 9.66232 269.63 9.76016 268.988 9.78462C268.124 9.78462 267.458 9.56448 266.964 9.12418C266.47 8.68388 266.224 7.99898 266.224 7.09393C266.224 6.94716 266.273 6.58025 266.347 6.04211L266.322 6.01765ZM267.532 6.33564C267.483 6.60471 267.458 6.84932 267.458 7.06946C267.458 7.85221 267.631 8.36589 267.976 8.6105C268.322 8.85511 268.692 8.97741 269.062 8.97741C269.951 8.97741 270.642 8.56158 271.111 7.75437C271.506 7.11839 271.704 6.33564 271.728 5.43058C271.753 4.62338 271.58 4.1097 271.21 3.86509C270.84 3.62048 270.469 3.49817 270.074 3.49817C269.359 3.49817 268.791 3.76724 268.347 4.30538C267.927 4.84352 267.631 5.52843 267.483 6.3601L267.532 6.33564Z" fill="white"/>
<path d="M280.417 4.68343e-05H281.38C281.257 0.562647 280.96 0.929561 280.541 1.10079C280.121 1.27201 279.553 1.41878 278.838 1.51662C278.171 1.59001 277.628 1.68785 277.184 1.83461C276.739 1.98138 276.344 2.25045 276.024 2.66628C275.604 3.17996 275.308 3.76702 275.184 4.37855C275.9 3.42457 276.863 2.93535 278.097 2.91089C278.418 2.91089 278.764 2.95982 279.134 3.05766C279.504 3.1555 279.825 3.37565 280.146 3.69364C280.467 4.01163 280.64 4.52531 280.689 5.18576C280.714 5.7239 280.64 6.26204 280.491 6.82464C280.343 7.38724 280.096 7.90092 279.726 8.34121C279.331 8.87935 278.862 9.24627 278.369 9.41749C277.875 9.58872 277.307 9.68656 276.69 9.68656C275.9 9.68656 275.234 9.49088 274.715 9.12396C274.172 8.75705 273.901 7.99876 273.901 6.8491C273.95 5.87066 274.123 4.91669 274.419 3.98717C274.715 3.05766 275.085 2.32383 275.554 1.83461C275.999 1.3454 276.517 1.0274 277.085 0.831717C277.653 0.660491 278.294 0.538187 278.986 0.489265C279.529 0.391421 279.874 0.342499 280.022 0.293578C280.171 0.244656 280.294 0.146812 280.393 -0.0244141L280.417 4.68343e-05ZM275.184 6.33542C275.11 6.72679 275.085 7.04479 275.11 7.28939C275.135 8.39013 275.678 8.92827 276.715 8.92827C277.579 8.92827 278.27 8.56136 278.739 7.82753C279.233 7.06925 279.455 6.23758 279.43 5.2836C279.43 4.23178 278.887 3.7181 277.825 3.7181C277.332 3.7181 276.813 3.88933 276.27 4.23178C275.727 4.57423 275.382 5.25914 275.184 6.33542Z" fill="white"/>
<path d="M282.54 8.73283H285.33L286.564 2.91113H287.724L286.465 8.73283H289.254L290.489 2.91113H291.649L290.415 8.73283H291.575L290.908 11.2278H289.946L290.341 9.51557H281.232L282.688 2.91113H283.848L282.614 8.73283H282.54Z" fill="white"/>
<path d="M297.45 7.60756H298.61C298.091 8.97737 297.079 9.68673 295.598 9.7112C294.808 9.76012 294.093 9.63781 293.475 9.29536C292.858 8.95291 292.513 8.268 292.463 7.19172C292.463 6.87373 292.463 6.53128 292.562 6.1399C292.636 5.74853 292.735 5.38162 292.883 5.0147C293.031 4.64779 293.229 4.3298 293.451 4.01181C293.92 3.44921 294.438 3.10675 295.006 2.93553C295.574 2.7643 296.092 2.69092 296.635 2.69092C298.264 2.7643 299.079 3.54705 299.079 5.03916C299.079 5.38162 299.029 5.84637 298.955 6.48236H293.747C293.599 6.99604 293.648 7.50971 293.821 8.02339C294.093 8.63492 294.611 8.92845 295.351 8.92845C296.339 8.92845 297.055 8.51261 297.45 7.60756ZM293.895 5.65069H297.869C297.919 5.40608 297.943 5.18593 297.943 5.03916C297.968 4.01181 297.474 3.52259 296.462 3.52259C295.722 3.47367 295.08 3.74274 294.586 4.3298C294.265 4.72117 294.043 5.16147 293.92 5.67515L293.895 5.65069Z" fill="white"/>
<path d="M304.929 7.19172H306.04C305.917 7.75432 305.67 8.21908 305.275 8.63491C304.658 9.36874 303.818 9.73566 302.757 9.73566C301.893 9.76012 301.226 9.53997 300.708 9.09967C300.214 8.65938 299.968 7.99893 299.968 7.11834C299.968 6.0176 300.264 5.0147 300.93 4.08519C301.621 3.15567 302.609 2.69092 303.868 2.69092C305.028 2.69092 305.793 3.00891 306.163 3.66935C306.386 4.08519 306.46 4.54995 306.41 5.0147H305.324C305.324 3.98735 304.83 3.47367 303.843 3.49813C303.004 3.49813 302.337 3.8895 301.844 4.69671C301.399 5.38162 301.152 6.21329 301.152 7.19172C301.152 7.55864 301.251 7.95001 301.498 8.36585C301.72 8.78168 302.164 8.97737 302.856 8.95291C303.399 8.95291 303.843 8.78168 304.164 8.46369C304.485 8.1457 304.732 7.7054 304.904 7.19172H304.929Z" fill="white"/>
<path d="M309.644 3.76726H307.348L307.546 2.91113H313.272L313.1 3.76726H310.829L309.57 9.51558H308.41L309.644 3.76726Z" fill="white"/>
<path d="M314.309 2.91113H317.123C317.79 2.91113 318.259 2.98452 318.481 3.10682C318.925 3.32697 319.172 3.71834 319.172 4.3054C319.172 4.79462 318.975 5.23492 318.605 5.62629C318.358 5.82198 318.111 5.96874 317.889 6.06659V6.13997C318.135 6.18889 318.382 6.3112 318.58 6.50688C318.777 6.70257 318.876 6.9961 318.901 7.33856C318.901 7.70547 318.827 8.02346 318.654 8.34145C318.481 8.65944 318.284 8.87959 318.061 9.05082C317.666 9.34435 317.049 9.51558 316.235 9.51558H312.902L314.334 2.91113H314.309ZM314.68 6.48242L314.211 8.73283H315.914C317.049 8.73283 317.617 8.31699 317.666 7.48532C317.691 6.80042 317.272 6.45796 316.383 6.45796H314.704L314.68 6.48242ZM315.297 3.71834L314.877 5.65075H316.432C317.074 5.65075 317.494 5.52845 317.716 5.28384C317.913 5.03923 318.012 4.79462 318.012 4.55001C318.012 4.01187 317.666 3.71834 316.926 3.71834H315.272H315.297Z" fill="white"/>
<path d="M320.086 6.01765C320.283 5.08813 320.703 4.32984 321.295 3.74278C321.986 3.03342 322.875 2.6665 323.961 2.6665C324.331 2.6665 324.702 2.69096 325.121 2.81327C325.541 2.91111 325.936 3.18018 326.257 3.59602C326.602 4.01185 326.75 4.62338 326.726 5.43058C326.726 6.50686 326.405 7.46084 325.788 8.31697C325.368 8.87957 324.924 9.27094 324.43 9.46663C323.936 9.66232 323.393 9.76016 322.751 9.78462C321.888 9.78462 321.221 9.56448 320.727 9.12418C320.234 8.68388 319.987 7.99898 319.987 7.09393C319.987 6.94716 320.036 6.58025 320.11 6.04211L320.086 6.01765ZM321.295 6.33564C321.246 6.60471 321.221 6.84932 321.221 7.06946C321.221 7.85221 321.394 8.36589 321.739 8.6105C322.085 8.85511 322.455 8.97741 322.826 8.97741C323.714 8.97741 324.405 8.56158 324.874 7.75437C325.269 7.11839 325.467 6.33564 325.491 5.43058C325.516 4.62338 325.343 4.1097 324.973 3.86509C324.603 3.62048 324.233 3.49817 323.838 3.49817C323.122 3.49817 322.554 3.76724 322.11 4.30538C321.69 4.84352 321.394 5.52843 321.246 6.3601L321.295 6.33564Z" fill="white"/>
<path d="M376.465 27.1514L391.918 49.8022L391.819 52.5173H542C542 52.5173 533.731 47.7474 527.782 46.3287C520.623 44.6165 513.563 42.6596 496.21 40.9718C491.594 40.5315 465.206 37.8652 465.206 37.8652L437.337 19.8376C437.337 19.8376 423.44 9.61291 418.009 7.99849C413.64 6.70207 399.792 7.43589 399.792 7.43589L431.067 39.8466L409.172 40.1401C409.172 40.1401 398.508 31.6277 395.225 29.4262C392.905 27.8607 388.733 25.1211 386.216 23.8736C384.71 23.1153 382.143 22.1858 379.304 23.7758C378.341 24.3139 376.465 27.1514 376.465 27.1514Z" fill="white"/>
</g>
<defs>
<clipPath id="clip0_0_491">
<rect width="542" height="76" fill="white"/>
</clipPath>
</defs>
</svg>
