<svg width="521" height="76" viewBox="0 0 521 76" fill="none" xmlns="http://www.w3.org/2000/svg">
<path d="M2.16051 25.4257L2.11195 22.2574L14.0561 11.7822H17.7535L10.9785 22.1417L2.16051 25.4257Z" stroke="white" stroke-width="2"/>
<path d="M1.18213 26.8573L2.28711 33.0795L11.6353 22.9644L1.18213 26.8573Z" fill="white"/>
<path d="M19.2279 9.78225H18.9994L19.413 9.62107L19.2279 9.78225Z" fill="white" stroke="white" stroke-width="2"/>
<path d="M19.6025 10.7822L11.6411 22.9586L29.7739 17.0317L19.6025 10.7822Z" fill="white"/>
<path d="M55.1223 18.3932L29.7739 17.0317L37.1331 26.8571L55.1223 18.3932Z" fill="white"/>
<path d="M11.6353 22.959L2.28711 33.0796L2.96667 36.896L16.8674 36.8085L11.6353 22.959Z" fill="white"/>
<path d="M37.1331 26.8574L36.7188 43.6157L55.1223 43.5884V39.8048L37.1331 26.8574Z" fill="white"/>
<path d="M37.1331 26.8574L16.8677 36.8085L18.8622 42.1285L36.7187 43.6157L37.1331 26.8574Z" fill="white"/>
<path d="M80.1634 16.0469L55.1222 17.3919L30.0811 16.0469L21.2854 10.6427L24.8467 7.54063L55.1222 2.10971L85.3926 7.54067L88.9584 10.6431L80.1634 16.0469Z" stroke="white" stroke-width="2"/>
<path d="M2.9668 36.896L32.7295 59.0453L18.862 42.1285L2.9668 36.896Z" fill="white"/>
<path d="M18.8623 42.1284L49.8405 66.7929L36.7188 43.6156L18.8623 42.1284Z" stroke="white" stroke-width="2"/>
<path d="M108.084 25.4252L99.2602 22.1363L92.4856 11.7822H96.1881L108.132 22.2574L108.084 25.4252Z" stroke="white" stroke-width="2"/>
<path d="M107.957 33.0796L109.062 26.8574L98.6089 22.959L107.957 33.0796Z" fill="white"/>
<path d="M91.0109 9.78225L90.8236 9.61913L91.2424 9.78225H91.0109Z" fill="white" stroke="white" stroke-width="2"/>
<path d="M98.609 22.9586L90.6421 10.7822L80.4707 17.0317L98.609 22.9586Z" fill="white"/>
<path d="M80.4704 17.0317L55.1221 18.3932L73.1112 26.8571L80.4704 17.0317Z" fill="white"/>
<path d="M93.3765 36.8084L107.272 36.8959L107.957 33.0795L98.603 22.9644L93.3765 36.8084Z" fill="white"/>
<path d="M55.1221 43.5884L73.5256 43.6157L73.1112 26.8574L55.1221 39.8048V43.5884Z" fill="white"/>
<path d="M73.5257 43.6157L91.3822 42.1285L93.3767 36.8085L73.1113 26.8574L73.5257 43.6157Z" fill="white"/>
<path d="M77.5146 59.0453L107.272 36.896L91.3767 42.1285L77.5146 59.0453Z" fill="white"/>
<path d="M60.4042 66.7929L55.1224 43.5883L49.8405 66.7929L18.8623 42.1284L32.7299 59.0452L55.1224 75.8637L77.5149 59.0452L91.3824 42.1284L60.4042 66.7929Z" fill="white"/>
<path d="M60.4038 66.7929L91.382 42.1284L73.5255 43.6156L60.4038 66.7929Z" stroke="white" stroke-width="2"/>
<path d="M452.834 22.2972C454.016 12.8382 447.635 6.57227 437.878 6.57227H416.69C405.966 6.57227 395.22 14.1449 392.22 25.2059C389.225 36.2724 395.872 43.8396 406.596 43.8396H427.784C437.541 43.8396 447.314 37.5737 451.254 28.1147H428.922C427.049 32.6966 424.336 33.9377 419.872 33.9377C414.574 33.9377 412.695 32.1881 414.585 25.2005C416.474 18.2128 419.303 16.4632 424.602 16.4632C429.071 16.4632 431.104 17.7044 430.502 22.2862H452.834V22.2972Z" fill="white"/>
<path d="M353.092 33.9432C347.589 33.9432 345.622 32.1936 347.512 25.2059C349.407 18.2183 352.324 16.4687 357.821 16.4687C363.319 16.4687 365.291 18.2183 363.402 25.2059C361.507 32.1936 358.589 33.9432 353.092 33.9432ZM371.391 6.57227H349.617C338.893 6.57227 328.147 14.1449 325.147 25.2059C322.153 36.2724 328.794 43.8396 339.523 43.8396H361.297C372.026 43.8396 382.766 36.2669 385.766 25.2059C388.761 14.1395 382.115 6.57227 371.391 6.57227Z" fill="white"/>
<path d="M287.346 16.4687H294.114C296.55 16.4687 297.998 18.4261 297.346 20.8373C296.694 23.2485 294.186 25.2059 291.749 25.2059H284.981L287.346 16.4687ZM308.86 6.57227H268.252L258.158 43.8451H279.931L282.296 35.1078H301.131C309.258 35.1078 317.33 29.6183 319.705 20.8428C322.081 12.0618 316.982 6.57227 308.854 6.57227H308.86Z" fill="white"/>
<path d="M217.886 6.57227L183.67 43.8396H206.621L231.66 16.5726L224.273 43.8396H246.047L256.141 6.57227H217.886Z" fill="white"/>
<path d="M482.552 6.57227L448.331 43.8451H471.282L476.862 37.7651L488.934 43.8451H510.707L520.801 6.57227H482.552ZM491.403 34.7415L483.359 30.69L496.326 16.5671L491.403 34.736V34.7415Z" fill="white"/>
<path d="M150.576 6.57227L116.355 43.8451H139.305L144.886 37.7651L156.958 43.8451H178.731L188.825 6.57227H150.576ZM159.427 34.7415L151.383 30.69L164.35 16.5671L159.427 34.736V34.7415Z" fill="white"/>
<path d="M125.587 67.1973L123.438 61.5766L121.25 67.1973H125.587ZM122.432 58.6514H124.581L130.593 72.4626H127.753L126.449 69.3023H120.399L119.139 72.4626H116.36L122.432 58.6514Z" fill="white"/>
<path d="M137.25 70.3958H139.476C140.758 70.3958 142.592 70.1443 142.592 68.3291C142.592 66.8856 141.587 66.3771 139.576 66.3771H137.25V70.3958ZM137.25 64.2721H139.454C141.112 64.2721 141.996 63.5886 141.996 62.3967C141.996 61.2048 141.106 60.6799 139.239 60.6799H137.25V64.2721ZM134.764 58.6514H140.206C142.316 58.6514 144.482 59.6082 144.482 62.1233C144.482 63.6871 143.499 64.7204 142.057 65.1469V65.1852C143.813 65.4203 145.073 66.5904 145.073 68.4439C145.073 71.4511 142.432 72.4626 139.791 72.4626H134.764V58.6514Z" fill="white"/>
<path d="M149.946 58.6514H152.427V68.761H152.488L159.029 58.6514H161.714V72.4626H159.228V62.435H159.189L152.665 72.4626H149.946V58.6514Z" fill="white"/>
<path d="M175.107 67.1973L172.957 61.5766L170.77 67.1973H175.107ZM171.952 58.6514H174.101L180.112 72.4626H177.272L175.969 69.3023H169.913L168.654 72.4626H165.875L171.946 58.6514H171.952Z" fill="white"/>
<path d="M184.284 58.6514H186.77V64.622H186.825L192.665 58.6514H196.013L189.488 65.0321L196.45 72.4626H192.958L186.825 65.5406H186.77V72.4626H184.284V58.6514Z" fill="white"/>
<path d="M206.041 70.6089C208.903 70.6089 210.853 68.4601 210.853 65.5185C210.853 62.577 208.941 60.4664 206.041 60.4664C203.14 60.4664 201.251 62.6699 201.251 65.5185C201.251 68.3672 203.201 70.6089 206.041 70.6089ZM206.019 58.3013C210.372 58.3013 213.549 61.0898 213.549 65.5185C213.549 69.9473 210.372 72.8178 206.019 72.8178C201.665 72.8178 198.549 69.8325 198.549 65.5185C198.549 61.2046 201.72 58.3013 206.019 58.3013Z" fill="white"/>
<path d="M218.373 58.6514H222.257L225.881 68.4658H225.942L229.533 58.6514H233.433V72.4626H230.969V61.3633H230.931L226.693 72.4626H224.958L220.776 61.3633H220.737V72.4626H218.373V58.6514Z" fill="white"/>
<path d="M238.992 58.6514H250.368V72.4626H247.881V60.8001H241.472V72.4626H238.992V58.6514Z" fill="white"/>
<path d="M263.76 67.1973L261.611 61.5766L259.423 67.1973H263.76ZM260.605 58.6514H262.754L268.765 72.4626H265.926L264.622 69.3023H258.572L257.312 72.4626H254.533L260.605 58.6514Z" fill="white"/>
<path d="M272.931 58.6514H275.417V64.2338H281.942V58.6514H284.429V72.4626H281.942V66.3389H275.417V72.4626H272.931V58.6514Z" fill="white"/>
<path d="M289.976 58.6514H292.456V68.761H292.517L299.059 58.6514H301.744V72.4626H299.257V62.435H299.219L292.694 72.4626H289.976V58.6514Z" fill="white"/>
<path d="M314.164 64.9336V60.718H312.23C310.479 60.718 309.274 61.2812 309.274 62.8067C309.274 64.3321 310.479 64.9336 312.313 64.9336H314.164ZM309.888 66.6121C307.976 66.1255 306.81 64.7805 306.81 62.752C306.81 59.8432 308.899 58.6567 312.075 58.6567H316.65V72.4734H314.164V66.9511H312.429L309.158 72.4734H306.142L309.888 66.6176V66.6121Z" fill="white"/>
</svg>
