<svg width="419" height="76" viewBox="0 0 419 76" fill="none" xmlns="http://www.w3.org/2000/svg">
<g clip-path="url(#clip0_0_717)">
<path d="M265.767 66.3093H261.583L255.287 74.4524H248.853L256.096 65.2849C252.581 64.1943 250.61 61.7255 250.61 58.0924C250.61 53.4055 254.023 49.7725 260.913 49.7725H271.217V74.445H265.767V66.3019V66.3093ZM265.767 61.1949V54.8868H260.597C257.464 54.8868 256.273 56.0143 256.273 58.0556C256.273 59.78 257.891 61.1949 260.384 61.1949H265.767Z" fill="white"/>
<path d="M275.813 49.7725H281.262V59.3968L290.727 49.7725H297.832L287.139 60.7012L298.538 74.445H291.36L283.02 64.3638L281.262 66.1619V74.445H275.813V49.7725Z" fill="white"/>
<path d="M310.363 49.3525C317.394 49.3525 323.027 54.7764 323.027 62.1089C323.027 69.4414 317.401 74.8726 310.363 74.8726C303.325 74.8726 297.663 69.4414 297.663 62.1089C297.663 54.7764 303.222 49.3525 310.363 49.3525ZM310.363 69.5814C314.232 69.5814 317.365 66.6926 317.365 62.1089C317.365 57.5251 313.952 54.6364 310.363 54.6364C306.774 54.6364 303.325 57.5251 303.325 62.1089C303.325 66.6926 306.635 69.5814 310.363 69.5814Z" fill="white"/>
<path d="M326.381 49.7725H337.39C343.825 49.7725 345.899 52.3812 345.899 56.0806C345.899 58.5125 344.877 60.1706 343.509 61.3644C345.517 62.3151 346.708 64.0469 346.708 67.1125C346.708 72.2932 342.663 74.445 337.103 74.445H326.374V49.7725H326.381ZM331.838 54.8868V59.3968H336.934C339.118 59.3968 340.244 58.5862 340.244 57.3187C340.244 55.6974 339.471 54.8868 336.478 54.8868H331.838ZM331.838 64.3343V69.3381H336.552C339.824 69.3381 341.023 68.6011 341.023 66.803C341.023 65.0049 339.935 64.3343 336.839 64.3343H331.845H331.838Z" fill="white"/>
<path d="M365.792 55.0636H358.092L357.953 57.9155C357.217 73.2143 354.047 74.5555 349.091 74.5555C348.672 74.5555 348.142 74.5187 347.686 74.4523V69.3749C351.451 69.8318 352.54 68.2474 352.753 52.5654L352.79 49.7798H371.256V74.4523H365.807V55.0636H365.792Z" fill="white"/>
<path d="M375.831 49.7725H394.65V54.8868H381.28V59.4705H393.768V64.408H381.28V69.3381H394.966V74.4524H375.831V49.7798V49.7725Z" fill="white"/>
<path d="M398.673 49.7725H409.682C416.117 49.7725 418.191 52.3812 418.191 56.0806C418.191 58.5125 417.169 60.1706 415.801 61.3644C417.809 62.3151 419 64.0469 419 67.1125C419 72.2932 414.955 74.445 409.395 74.445H398.666V49.7725H398.673ZM404.122 54.8868V59.3968H409.219C411.403 59.3968 412.528 58.5862 412.528 57.3187C412.528 55.6974 411.756 54.8868 408.763 54.8868H404.122ZM404.122 64.3343V69.3381H408.836C412.109 69.3381 413.308 68.6011 413.308 66.803C413.308 65.0049 412.219 64.3343 409.123 64.3343H404.13H404.122Z" fill="white"/>
<path d="M56.6719 19.2119C50.2002 12.7196 41.6987 9.47705 33.1972 9.47705C24.6957 9.47705 16.3633 12.6532 9.92103 19.0056L9.72247 19.2119L9.61951 19.3078L9.51655 19.4109C6.33952 22.6534 3.95675 26.3823 2.36823 30.3691C-2.40466 42.3517 0.0442961 56.5745 9.71511 66.2652C16.1868 72.7502 24.6883 75.9927 33.1898 76.0001C41.6987 76.0001 50.2002 72.7502 56.6645 66.2652C69.6153 53.2878 69.6153 32.182 56.6645 19.2119H56.6719ZM48.2881 57.8641C44.1256 62.0352 38.6614 64.1207 33.1972 64.1207C27.733 64.1207 22.2688 62.0352 18.1063 57.8641C13.9438 53.6931 11.8625 48.2177 11.8625 42.7423C11.8625 37.2668 13.9438 31.7914 18.1063 27.613C22.2688 23.442 27.733 21.3564 33.1972 21.3564C38.6614 21.3564 44.1329 23.442 48.2881 27.613C56.6057 35.9551 56.6131 49.5294 48.2881 57.8641Z" fill="white"/>
<path d="M125.603 11.0688H113.005C111.887 11.0688 110.821 11.5479 110.071 12.3806L54.3257 74.4231H66.9235C68.0413 74.4231 69.1077 73.9441 69.8578 73.1113L116.991 20.649V42.7423H124.897C127.081 42.7423 128.846 40.9663 128.846 38.7849V11.0688H125.603Z" fill="white"/>
<path d="M190.1 11.0688H178.031C176.913 11.0688 175.847 11.5479 175.097 12.3806L148.6 41.8653V11.0688H140.672C138.502 11.0688 136.745 12.8154 136.745 14.9746V74.4231H148.6V43.6266L175.097 73.1113C175.847 73.9441 176.913 74.4231 178.031 74.4231H190.1L161.639 42.7496L190.1 11.0762V11.0688Z" fill="white"/>
<path d="M101.327 49.4259C116.131 54.6287 122.117 60.6273 127.309 75.4618C127.603 76.3019 128.846 76.0956 128.846 75.2039V51.8431C128.846 49.6544 127.074 47.8857 124.897 47.8857C119.021 47.8857 107.99 47.8857 101.584 47.8857C100.694 47.8857 100.488 49.1312 101.327 49.4259Z" fill="white"/>
<path d="M202.33 12.6828C217.134 17.8855 223.223 23.9874 228.415 38.8218C228.511 39.0871 228.724 39.2419 228.996 39.2419C229.313 39.2419 229.629 39.0282 229.629 38.6155V15.2547C229.629 13.1618 227.93 11.4595 225.841 11.4595H202.529C202.139 11.4595 201.955 11.7395 201.918 11.9753C201.874 12.2185 201.962 12.5428 202.33 12.6754V12.6828Z" fill="#19232D"/>
<path d="M217.362 0C204.271 0 193.652 10.634 193.652 23.7588C193.652 36.8835 204.264 47.5175 217.362 47.5175C230.46 47.5175 241.072 36.8835 241.072 23.7588C241.072 10.634 230.452 0 217.362 0ZM229.621 38.6153C229.621 39.028 229.305 39.2417 228.989 39.2417C228.717 39.2417 228.496 39.087 228.408 38.8217C223.216 23.9872 217.127 17.8854 202.322 12.6826C201.955 12.55 201.867 12.2257 201.911 11.9825C201.955 11.7467 202.139 11.4667 202.521 11.4667H225.834C227.923 11.4667 229.621 13.169 229.621 15.2619V38.6227V38.6153Z" fill="white"/>
</g>
<defs>
<clipPath id="clip0_0_717">
<rect width="419" height="76" fill="white"/>
</clipPath>
</defs>
</svg>
