<svg width="56" height="56" viewBox="0 0 56 56" fill="none" xmlns="http://www.w3.org/2000/svg">
<path d="M30.0496 27.9997L35.1896 22.8597C35.4431 22.5833 35.5801 22.2197 35.572 21.8447C35.5639 21.4698 35.4112 21.1124 35.1459 20.8473C34.8806 20.5822 34.5232 20.4298 34.1483 20.4219C33.7733 20.414 33.4098 20.5513 33.1336 20.805L33.1349 20.8037L27.9949 25.9437L22.8549 20.8037C22.5785 20.5501 22.2149 20.4131 21.84 20.4212C21.465 20.4294 21.1077 20.582 20.8426 20.8473C20.5774 21.1126 20.425 21.47 20.4172 21.845C20.4093 22.2199 20.5465 22.5835 20.8002 22.8597L20.7989 22.8583L25.9389 27.9983L20.7989 33.1383C20.6543 33.271 20.538 33.4316 20.4571 33.6104C20.3761 33.7892 20.3322 33.9825 20.328 34.1787C20.3237 34.3749 20.3592 34.57 20.4323 34.7521C20.5054 34.9342 20.6146 35.0997 20.7534 35.2385C20.8921 35.3773 21.0575 35.4866 21.2396 35.5599C21.4217 35.6331 21.6167 35.6687 21.8129 35.6646C22.0091 35.6605 22.2025 35.6167 22.3813 35.5358C22.5602 35.455 22.7208 35.3389 22.8536 35.1943L22.8549 35.193L27.9949 30.053L33.1349 35.193C33.2676 35.3376 33.4281 35.4539 33.6069 35.5348C33.7857 35.6158 33.9791 35.6597 34.1753 35.6639C34.3715 35.6682 34.5665 35.6327 34.7487 35.5596C34.9308 35.4865 35.0963 35.3773 35.2351 35.2385C35.3739 35.0998 35.4832 34.9344 35.5564 34.7523C35.6297 34.5702 35.6653 34.3752 35.6611 34.179C35.657 33.9828 35.6132 33.7894 35.5324 33.6106C35.4516 33.4317 35.3354 33.2711 35.1909 33.1383L35.1896 33.137L30.0496 27.9997Z" fill="black"/>
<circle cx="28" cy="28" r="27" stroke="black" stroke-width="2"/>
</svg>
