<svg width="24" height="16" viewBox="0 0 24 16" fill="none" xmlns="http://www.w3.org/2000/svg">
<path d="M22.5869 5.45312C22.7611 5.33203 23.0202 5.44531 23.0202 5.63672V13.625C23.0202 14.6602 22.0598 15.5 20.876 15.5H2.29267C1.10887 15.5 0.148438 14.6602 0.148438 13.625V5.64062C0.148438 5.44531 0.403065 5.33594 0.581751 5.45703C1.58239 6.13672 2.90913 7 7.46563 9.89453C8.40819 10.4961 9.9985 11.7617 11.5843 11.7539C13.1791 11.7656 14.8007 10.4727 15.7075 9.89453C20.264 7 21.5863 6.13281 22.5869 5.45312ZM11.5843 10.5C12.6207 10.5156 14.1127 9.35938 14.8632 8.88281C20.7911 5.12109 21.2423 4.79297 22.6093 3.85547C22.8683 3.67969 23.0202 3.40625 23.0202 3.11719V2.375C23.0202 1.33984 22.0598 0.5 20.876 0.5H2.29267C1.10887 0.5 0.148438 1.33984 0.148438 2.375V3.11719C0.148438 3.40625 0.300321 3.67578 0.559415 3.85547C1.92636 4.78906 2.37754 5.12109 8.30545 8.88281C9.05593 9.35938 10.548 10.5156 11.5843 10.5Z" fill="#435060"/>
</svg>
