<svg width="171" height="58" viewBox="0 0 171 58" fill="none" xmlns="http://www.w3.org/2000/svg">
<path d="M106.181 39.4144C67.5147 37.8744 31.2793 27.7502 31.7068 17.0301C32.1384 6.30922 66.5448 -0.984827 105.209 0.546769C143.871 2.0875 171.429 12.0246 170.989 22.7468C170.556 33.4593 144.8 41.0029 106.131 39.4678M105.027 4.9337C72.017 3.62176 44.9489 9.98248 44.5836 19.1376C44.219 28.2968 73.1579 38.1046 106.181 39.4144C139.183 40.7277 163.77 33.0417 164.139 23.8859C164.5 14.7273 138.038 6.24563 105.027 4.9337Z" fill="#4BA5CB"/>
<path d="M102.532 39.3097C63.8883 37.8881 28.3726 28.663 28.8087 18.6946C29.2393 8.71865 65.4436 1.78765 104.092 3.20853C142.744 4.63285 169.254 13.8733 168.818 23.8458C168.391 33.8127 145.88 40.8878 107.224 39.4641M103.909 7.28347C70.9138 6.06601 43.863 11.9865 43.4938 20.4959C43.1287 29.0045 74.2246 38.2516 107.224 39.4641C140.22 40.383 162.643 33.3237 163.006 24.896C163.376 16.3908 136.913 8.4995 103.909 7.28347Z" fill="#A7DAF7"/>
<path fill-rule="evenodd" clip-rule="evenodd" d="M109.382 30.0117C109.294 30.0964 109.294 30.2352 109.383 30.3214C109.473 30.4074 109.616 30.4097 109.705 30.3238C109.707 30.3224 110.337 29.7333 109.536 29.4119C109.185 29.2721 108.658 29.0783 108.4 28.985C108.404 28.4339 108.36 26.6409 107.623 26.4619C107.143 26.3468 106.881 26.5256 106.732 26.8315C106.61 27.0796 106.586 27.4009 106.567 27.6883C106.541 28.0784 106.413 28.6087 106.352 28.8425L105.856 28.9752C105.735 29.0083 105.665 29.1291 105.7 29.2456C105.735 29.3626 105.861 29.4316 105.982 29.398L106.603 29.2313C106.677 29.2106 106.738 29.1555 106.76 29.0791C106.761 29.0762 106.985 28.276 107.022 27.7201C107.038 27.4732 107.058 27.1962 107.144 27.0224C107.202 26.9061 107.309 26.839 107.518 26.8889C108.023 27.0104 107.943 29.1181 107.943 29.1245C107.94 29.2168 107.998 29.3054 108.093 29.3398C108.095 29.3401 108.887 29.6272 109.366 29.8176C109.523 29.8806 109.383 30.0123 109.383 30.0123L109.382 30.0117Z" fill="white"/>
<path fill-rule="evenodd" clip-rule="evenodd" d="M105.01 25.9979C104.999 25.8768 104.888 25.787 104.762 25.7974C104.637 25.807 104.546 25.9131 104.557 26.035L104.874 29.1926C104.886 29.3129 104.997 29.4034 105.123 29.3931C105.247 29.3826 105.339 29.2765 105.327 29.1554L105.01 25.9979Z" fill="white"/>
<path fill-rule="evenodd" clip-rule="evenodd" d="M110.351 26.4249C110.375 26.3069 110.293 26.1913 110.17 26.1667C110.047 26.1422 109.928 26.2194 109.903 26.3385L109.386 28.8966C109.362 29.0159 109.444 29.1315 109.567 29.1547C109.69 29.1792 109.809 29.1021 109.833 28.9841L110.351 26.4246L110.351 26.4249Z" fill="white"/>
<path fill-rule="evenodd" clip-rule="evenodd" d="M110.04 25.8592C109.942 25.9345 109.925 26.0714 110.004 26.167C110.082 26.2625 110.226 26.2791 110.323 26.205C110.33 26.2005 112.646 24.4293 115.438 23.0219C117.301 22.084 126.681 18.1611 132.825 15.5914C135.931 14.2925 138.213 13.3382 138.316 13.2705C138.505 13.1446 138.37 13.0192 138.063 12.9035C138.061 12.9049 138.059 12.9069 138.055 12.9089C137.993 12.9506 135.726 13.8987 132.641 15.1884C126.491 17.7605 117.103 21.6863 115.225 22.6331C112.394 24.0598 110.046 25.854 110.04 25.8592ZM138.063 12.9035C137.996 12.8778 137.921 12.8534 137.84 12.8291C138.005 12.8493 138.092 12.8737 138.063 12.9035ZM137.84 12.8291C136.811 12.5203 134.727 12.2881 134.718 12.2874C134.675 12.2823 134.633 12.2899 134.595 12.3062L106.903 24.7514C106.789 24.8018 106.741 24.932 106.795 25.0433C106.85 25.1522 106.985 25.1998 107.098 25.1485L134.748 12.7232C135.168 12.7262 137.16 12.7443 137.84 12.8291Z" fill="white"/>
<path fill-rule="evenodd" clip-rule="evenodd" d="M105.985 25.6768C105.859 25.6811 105.764 25.7842 105.77 25.9045C105.777 26.0258 105.884 26.1197 106.01 26.1141C106.013 26.1137 107.322 26.0575 108.339 25.8653C109.425 25.6614 110.067 24.8131 110.069 24.8103C110.143 24.7135 110.121 24.5763 110.019 24.5034C109.97 24.4675 109.909 24.4537 109.852 24.4609L104.723 24.9663C104.598 24.9792 104.508 25.0856 104.522 25.2061C104.536 25.3267 104.648 25.4143 104.773 25.4023L109.276 24.9596C109.028 25.1507 108.68 25.3546 108.248 25.4349C107.269 25.6195 105.989 25.6766 105.985 25.6769L105.985 25.6768Z" fill="white"/>
<path fill-rule="evenodd" clip-rule="evenodd" d="M108.395 23.5984C108.52 23.6154 108.634 23.532 108.65 23.4122C108.666 23.2925 108.58 23.1817 108.454 23.1646C108.443 23.163 104.59 22.6356 104.23 23.8195C103.845 25.0849 106.137 25.2607 106.143 25.261C106.269 25.2735 106.378 25.1839 106.388 25.0627C106.398 24.9424 106.305 24.8351 106.18 24.8245C106.175 24.8246 104.441 24.6877 104.666 23.9467C104.916 23.125 108.386 23.5968 108.395 23.5981L108.395 23.5984Z" fill="white"/>
<path fill-rule="evenodd" clip-rule="evenodd" d="M104.005 24.8766C104.131 24.8834 104.237 24.7895 104.242 24.6685C104.247 24.548 104.149 24.4451 104.024 24.4391L100.047 24.2563C99.9229 24.2504 99.8174 24.3419 99.811 24.4605L99.8102 24.4604L99.7406 25.658C99.7331 25.7781 99.8283 25.8828 99.9529 25.8912L104.32 26.5226C104.444 26.5417 104.559 26.4585 104.576 26.3383C104.594 26.2196 104.507 26.1079 104.382 26.0895L100.207 25.4852L100.253 24.704L104.005 24.8766Z" fill="white"/>
<path fill-rule="evenodd" clip-rule="evenodd" d="M100.627 25.2941C100.751 25.3094 100.863 25.2227 100.877 25.1035C100.891 24.9828 100.802 24.8747 100.676 24.8592C100.633 24.8542 85.4531 23.0891 80.5632 22.7803C75.6522 22.4716 47.4982 20.3884 47.4176 20.3821C47.2924 20.3728 47.1836 20.4633 47.1746 20.5846C47.1698 20.6555 47.2 20.7209 47.2512 20.7639L48.7905 22.0906C48.8321 22.1271 48.8835 22.1449 48.9345 22.1471C49.3046 22.1732 80.7635 24.4033 85.8785 25.2804C88.471 25.7253 90.273 25.8526 91.5983 25.8291C92.9354 25.8042 93.7869 25.6279 94.4742 25.4656C95.7696 25.1592 98.7053 25.9118 98.7141 25.9152C98.8363 25.9461 98.9603 25.8751 98.9908 25.7589C99.0225 25.6407 98.9482 25.5205 98.8261 25.4889C98.8173 25.4877 95.7718 24.7067 94.3619 25.0391C93.6965 25.1959 92.8742 25.3664 91.5865 25.3903C90.2866 25.4134 88.5138 25.2871 85.9538 24.8487C80.9224 23.9861 50.7206 21.8334 49.0337 21.7132L48.0529 20.8683C52.3417 21.1855 76.0949 22.9387 80.5376 23.2187C85.4375 23.5266 100.582 25.2884 100.627 25.2936L100.627 25.2941Z" fill="white"/>
<path fill-rule="evenodd" clip-rule="evenodd" d="M110.941 26.0554C110.818 26.0314 110.699 26.108 110.675 26.2265C110.651 26.3457 110.732 26.4613 110.855 26.4853L111.954 26.7037L111.764 27.7135L109.948 27.2905C109.825 27.2627 109.704 27.335 109.676 27.4538C109.648 27.5703 109.724 27.6891 109.847 27.7169L111.887 28.1919C111.893 28.1935 111.899 28.1944 111.906 28.1952C112.029 28.2184 112.148 28.1404 112.169 28.0214L112.441 26.5811L112.442 26.5757C112.465 26.4564 112.385 26.3409 112.261 26.3175L110.941 26.0557L110.941 26.0554Z" fill="white"/>
<path fill-rule="evenodd" clip-rule="evenodd" d="M111.2 26.9879C111.079 26.9579 110.955 27.029 110.925 27.1469C110.896 27.2647 110.972 27.3836 111.094 27.4144C111.116 27.419 118.652 29.2442 122.971 30.3397C127.283 31.4341 139.53 35.0057 139.566 35.0161C139.687 35.0514 139.813 34.9855 139.848 34.8699C139.883 34.7544 139.814 34.6319 139.693 34.5966C139.658 34.587 127.372 31.0041 123.081 29.9156C118.794 28.8278 111.222 26.9945 111.2 26.9884L111.2 26.9879Z" fill="white"/>
<path fill-rule="evenodd" clip-rule="evenodd" d="M105.321 29.1535L105.004 25.996C104.992 25.8749 104.881 25.7852 104.755 25.7955C104.631 25.8051 104.539 25.9112 104.551 26.0331L104.578 26.2976L104.57 26.2966C104.561 26.1981 104.482 26.1133 104.374 26.0978L100.2 25.4935L100.214 25.2424C100.472 25.2719 100.613 25.2881 100.617 25.2887C100.741 25.304 100.854 25.2173 100.868 25.0981C100.881 24.9774 100.792 24.8693 100.666 24.8538C100.663 24.8533 100.512 24.8358 100.24 24.805L100.245 24.7123L103.998 24.8848C104.123 24.8917 104.229 24.7977 104.234 24.6768C104.236 24.6362 104.226 24.5971 104.207 24.5629L104.353 24.5568C104.482 24.7205 104.674 24.8474 104.885 24.9455L104.716 24.9626C104.591 24.9755 104.502 25.0819 104.515 25.2025C104.529 25.323 104.641 25.4106 104.766 25.3986L109.269 24.956C109.022 25.1471 108.673 25.3509 108.242 25.4312C107.262 25.6159 105.982 25.6729 105.978 25.6732C105.853 25.6774 105.757 25.7805 105.763 25.9009C105.771 26.0222 105.878 26.1161 106.004 26.1105C106.007 26.1101 107.316 26.0539 108.332 25.8617C108.759 25.7815 109.117 25.6025 109.394 25.4133C109.364 25.7573 109.746 25.8764 109.984 25.9174C109.937 25.9927 109.942 26.0923 110.002 26.1657C110.006 26.171 110.009 26.1753 110.014 26.1793C109.962 26.2108 109.923 26.2612 109.91 26.3239L109.393 28.882C109.369 29.0013 109.451 29.1169 109.574 29.1401C109.578 29.1415 109.582 29.142 109.585 29.1425L109.546 29.4255C109.542 29.424 109.537 29.4217 109.532 29.4196C109.181 29.2797 108.653 29.086 108.396 28.9927C108.4 28.4416 108.356 26.6486 107.619 26.4695C107.139 26.3544 106.877 26.5333 106.728 26.8392C106.606 27.0873 106.581 27.4086 106.563 27.696C106.536 28.0861 106.408 28.6164 106.348 28.8502L105.852 28.9829C105.731 29.016 105.661 29.1367 105.696 29.2532C105.709 29.2975 105.735 29.3348 105.769 29.3622C105.747 29.3922 105.73 29.4245 105.725 29.4568C105.556 29.4213 105.39 29.3859 105.227 29.3521C105.29 29.3088 105.328 29.2347 105.321 29.1541L105.321 29.1535ZM105.979 25.6732L100.617 25.289L105.979 25.6732Z" fill="white"/>
<path fill-rule="evenodd" clip-rule="evenodd" d="M108.893 23.8608L106.916 24.7486L106.167 24.8223C105.961 24.8028 104.466 24.6374 104.676 23.9463C104.926 23.1247 108.396 23.5965 108.405 23.5978C108.501 23.6109 108.59 23.5656 108.634 23.4898C108.77 23.5713 108.89 23.6914 108.893 23.8606L108.893 23.8608Z" fill="white"/>
<path fill-rule="evenodd" clip-rule="evenodd" d="M110.066 24.7993C110.14 24.7025 110.118 24.5653 110.016 24.4923C109.967 24.4564 109.907 24.4427 109.849 24.4498L108.294 24.603L134.75 12.7145C135.17 12.7175 137.161 12.7356 137.842 12.8204C137.923 12.8447 137.998 12.8691 138.064 12.8948C138.062 12.8962 138.061 12.8982 138.057 12.9002C137.995 12.9419 135.727 13.89 132.643 15.1797C126.493 17.7518 117.104 21.6777 115.227 22.6244C112.396 24.0511 110.048 25.8453 110.042 25.8505C110.02 25.868 110.001 25.8875 109.988 25.91C109.75 25.869 109.367 25.7499 109.398 25.4059C109.827 25.115 110.065 24.8014 110.065 24.7993L110.066 24.7993Z" fill="white"/>
<path fill-rule="evenodd" clip-rule="evenodd" d="M110.177 27.3468L110.366 26.4123C110.38 26.3411 110.356 26.2704 110.308 26.2206C110.315 26.216 110.323 26.2116 110.329 26.2063C110.33 26.2056 110.36 26.1831 110.417 26.1412C110.501 26.1613 110.6 26.1868 110.694 26.2121C110.692 26.219 110.691 26.2257 110.689 26.2327C110.665 26.3519 110.746 26.4675 110.869 26.4915L111.968 26.7099L111.885 27.1527C111.456 27.0487 111.208 26.9887 111.204 26.9874C111.082 26.9575 110.959 27.0285 110.929 27.1464C110.9 27.2642 110.975 27.3831 111.098 27.4139C111.101 27.4145 111.359 27.4771 111.804 27.5849L111.778 27.7197L110.177 27.3471L110.177 27.3468Z" fill="white"/>
<path fill-rule="evenodd" clip-rule="evenodd" d="M99.7662 25.1982L99.7381 25.6745C99.7381 25.6808 99.738 25.6878 99.7377 25.6941L98.9858 25.6489C98.9647 25.5753 98.9046 25.5136 98.822 25.4921C98.8133 25.4909 95.7677 24.7099 94.3579 25.0423C93.6924 25.199 92.8701 25.3696 91.5825 25.3935C90.2825 25.4165 88.5097 25.2902 85.9498 24.8519C80.9183 23.9893 50.7166 21.8365 49.0296 21.7164L48.0488 20.8715C52.3376 21.1886 76.0908 22.9419 80.5335 23.2218C84.7391 23.4861 96.4923 24.8221 99.7668 25.198L99.7662 25.1982Z" fill="white"/>
<path fill-rule="evenodd" clip-rule="evenodd" d="M106.754 29.0761C106.755 29.0733 106.98 28.273 107.016 27.7172C107.032 27.4702 107.052 27.1932 107.138 27.0195C107.196 26.9031 107.304 26.8361 107.512 26.8859C108.017 27.0075 107.938 29.1151 107.938 29.1215C107.934 29.2139 107.992 29.3025 108.087 29.3368C108.089 29.3371 108.881 29.6242 109.361 29.8147C109.517 29.8777 109.377 30.0093 109.377 30.0093C109.312 30.0719 109.295 30.1655 109.327 30.2445C108.059 29.9528 106.827 29.6793 105.724 29.4463C105.73 29.414 105.746 29.3816 105.768 29.3516C105.825 29.3971 105.901 29.4161 105.977 29.3951L106.598 29.2284C106.672 29.2077 106.733 29.1526 106.755 29.0762L106.754 29.0761ZM109.377 30.0093L107.938 29.1215L109.377 30.0093Z" fill="white"/>
<path fill-rule="evenodd" clip-rule="evenodd" d="M109.382 30.0117C109.294 30.0964 109.294 30.2352 109.383 30.3214C109.473 30.4074 109.616 30.4097 109.705 30.3238C109.707 30.3224 110.337 29.7333 109.536 29.4119C109.185 29.2721 108.658 29.0783 108.4 28.985C108.404 28.4339 108.36 26.6409 107.623 26.4619C107.143 26.3468 106.881 26.5256 106.732 26.8315C106.61 27.0796 106.586 27.4009 106.567 27.6883C106.541 28.0784 106.413 28.6087 106.352 28.8425L105.856 28.9752C105.735 29.0083 105.665 29.1291 105.7 29.2456C105.735 29.3626 105.861 29.4316 105.982 29.398L106.603 29.2313C106.677 29.2106 106.738 29.1555 106.76 29.0791C106.761 29.0762 106.985 28.276 107.022 27.7201C107.038 27.4732 107.058 27.1962 107.144 27.0224C107.202 26.9061 107.309 26.839 107.518 26.8889C108.023 27.0104 107.943 29.1181 107.943 29.1245C107.94 29.2168 107.998 29.3054 108.093 29.3398C108.095 29.3401 108.887 29.6272 109.366 29.8176C109.523 29.8806 109.383 30.0123 109.383 30.0123L109.382 30.0117Z" fill="white"/>
<path fill-rule="evenodd" clip-rule="evenodd" d="M105.01 25.9979C104.999 25.8768 104.888 25.787 104.762 25.7974C104.637 25.807 104.546 25.9131 104.557 26.035L104.874 29.1926C104.886 29.3129 104.997 29.4034 105.123 29.3931C105.247 29.3826 105.339 29.2765 105.327 29.1554L105.01 25.9979Z" fill="white"/>
<path fill-rule="evenodd" clip-rule="evenodd" d="M110.351 26.4249C110.375 26.3069 110.293 26.1913 110.17 26.1667C110.047 26.1422 109.928 26.2194 109.903 26.3385L109.386 28.8966C109.362 29.0159 109.444 29.1315 109.567 29.1547C109.69 29.1792 109.809 29.1021 109.833 28.9841L110.351 26.4246L110.351 26.4249Z" fill="white"/>
<path fill-rule="evenodd" clip-rule="evenodd" d="M110.04 25.8592C109.942 25.9345 109.925 26.0714 110.004 26.167C110.082 26.2625 110.226 26.2791 110.323 26.205C110.33 26.2005 112.646 24.4293 115.438 23.0219C117.301 22.084 126.681 18.1611 132.825 15.5914C135.931 14.2925 138.213 13.3382 138.316 13.2705C138.505 13.1446 138.37 13.0192 138.063 12.9035C138.061 12.9049 138.059 12.9069 138.055 12.9089C137.993 12.9506 135.726 13.8987 132.641 15.1884C126.491 17.7605 117.103 21.6863 115.225 22.6331C112.394 24.0598 110.046 25.854 110.04 25.8592ZM138.063 12.9035C137.996 12.8778 137.921 12.8534 137.84 12.8291C138.005 12.8493 138.092 12.8737 138.063 12.9035ZM137.84 12.8291C136.811 12.5203 134.727 12.2881 134.718 12.2874C134.675 12.2823 134.633 12.2899 134.595 12.3062L106.903 24.7514C106.789 24.8018 106.741 24.932 106.795 25.0433C106.85 25.1522 106.985 25.1998 107.098 25.1485L134.748 12.7232C135.168 12.7262 137.16 12.7443 137.84 12.8291Z" fill="white"/>
<path fill-rule="evenodd" clip-rule="evenodd" d="M105.985 25.6768C105.859 25.6811 105.764 25.7842 105.77 25.9045C105.777 26.0258 105.884 26.1197 106.01 26.1141C106.013 26.1137 107.322 26.0575 108.339 25.8653C109.425 25.6614 110.067 24.8131 110.069 24.8103C110.143 24.7135 110.121 24.5763 110.019 24.5034C109.97 24.4675 109.909 24.4537 109.852 24.4609L104.723 24.9663C104.598 24.9792 104.508 25.0856 104.522 25.2061C104.536 25.3267 104.648 25.4143 104.773 25.4023L109.276 24.9596C109.028 25.1507 108.68 25.3546 108.248 25.4349C107.269 25.6195 105.989 25.6766 105.985 25.6769L105.985 25.6768Z" fill="white"/>
<path fill-rule="evenodd" clip-rule="evenodd" d="M108.395 23.5984C108.52 23.6154 108.634 23.532 108.65 23.4122C108.666 23.2925 108.58 23.1817 108.454 23.1646C108.443 23.163 104.59 22.6356 104.23 23.8195C103.845 25.0849 106.137 25.2607 106.143 25.261C106.269 25.2735 106.378 25.1839 106.388 25.0627C106.398 24.9424 106.305 24.8351 106.18 24.8245C106.175 24.8246 104.441 24.6877 104.666 23.9467C104.916 23.125 108.386 23.5968 108.395 23.5981L108.395 23.5984Z" fill="white"/>
<path fill-rule="evenodd" clip-rule="evenodd" d="M104.005 24.8766C104.131 24.8834 104.237 24.7895 104.242 24.6685C104.247 24.548 104.149 24.4451 104.024 24.4391L100.047 24.2563C99.9229 24.2504 99.8174 24.3419 99.811 24.4605L99.8102 24.4604L99.7406 25.658C99.7331 25.7781 99.8283 25.8828 99.9529 25.8912L104.32 26.5226C104.444 26.5417 104.559 26.4585 104.576 26.3383C104.594 26.2196 104.507 26.1079 104.382 26.0895L100.207 25.4852L100.253 24.704L104.005 24.8766Z" fill="white"/>
<path fill-rule="evenodd" clip-rule="evenodd" d="M100.627 25.2941C100.751 25.3094 100.863 25.2227 100.877 25.1035C100.891 24.9828 100.802 24.8747 100.676 24.8592C100.633 24.8542 85.4531 23.0891 80.5632 22.7803C75.6522 22.4716 47.4982 20.3884 47.4176 20.3821C47.2924 20.3728 47.1836 20.4633 47.1746 20.5846C47.1698 20.6555 47.2 20.7209 47.2512 20.7639L48.7905 22.0906C48.8321 22.1271 48.8835 22.1449 48.9345 22.1471C49.3046 22.1732 80.7635 24.4033 85.8785 25.2804C88.471 25.7253 90.273 25.8526 91.5983 25.8291C92.9354 25.8042 93.7869 25.6279 94.4742 25.4656C95.7696 25.1592 98.7053 25.9118 98.7141 25.9152C98.8363 25.9461 98.9603 25.8751 98.9908 25.7589C99.0225 25.6407 98.9482 25.5205 98.8261 25.4889C98.8173 25.4877 95.7718 24.7067 94.3619 25.0391C93.6965 25.1959 92.8742 25.3664 91.5865 25.3903C90.2866 25.4134 88.5138 25.2871 85.9538 24.8487C80.9224 23.9861 50.7206 21.8334 49.0337 21.7132L48.0529 20.8683C52.3417 21.1855 76.0949 22.9387 80.5376 23.2187C85.4375 23.5266 100.582 25.2884 100.627 25.2936L100.627 25.2941Z" fill="white"/>
<path fill-rule="evenodd" clip-rule="evenodd" d="M110.941 26.0554C110.818 26.0314 110.699 26.108 110.675 26.2265C110.651 26.3457 110.732 26.4613 110.855 26.4853L111.954 26.7037L111.764 27.7135L109.948 27.2905C109.825 27.2627 109.704 27.335 109.676 27.4538C109.648 27.5703 109.724 27.6891 109.847 27.7169L111.887 28.1919C111.893 28.1935 111.899 28.1944 111.906 28.1952C112.029 28.2184 112.148 28.1404 112.169 28.0214L112.441 26.5811L112.442 26.5757C112.465 26.4564 112.385 26.3409 112.261 26.3175L110.941 26.0557L110.941 26.0554Z" fill="white"/>
<path fill-rule="evenodd" clip-rule="evenodd" d="M111.2 26.9879C111.079 26.9579 110.955 27.029 110.925 27.1469C110.896 27.2647 110.972 27.3836 111.094 27.4144C111.116 27.419 118.652 29.2442 122.971 30.3397C127.283 31.4341 139.53 35.0057 139.566 35.0161C139.687 35.0514 139.813 34.9855 139.848 34.8699C139.883 34.7544 139.814 34.6319 139.693 34.5966C139.658 34.587 127.372 31.0041 123.081 29.9156C118.794 28.8278 111.222 26.9945 111.2 26.9884L111.2 26.9879Z" fill="white"/>
<path fill-rule="evenodd" clip-rule="evenodd" d="M105.321 29.1535L105.004 25.996C104.992 25.8749 104.881 25.7852 104.755 25.7955C104.631 25.8051 104.539 25.9112 104.551 26.0331L104.578 26.2976L104.57 26.2966C104.561 26.1981 104.482 26.1133 104.374 26.0978L100.2 25.4935L100.214 25.2424C100.472 25.2719 100.613 25.2881 100.617 25.2887C100.741 25.304 100.854 25.2173 100.868 25.0981C100.881 24.9774 100.792 24.8693 100.666 24.8538C100.663 24.8533 100.512 24.8358 100.24 24.805L100.245 24.7123L103.998 24.8848C104.123 24.8917 104.229 24.7977 104.234 24.6768C104.236 24.6362 104.226 24.5971 104.207 24.5629L104.353 24.5568C104.482 24.7205 104.674 24.8474 104.885 24.9455L104.716 24.9626C104.591 24.9755 104.502 25.0819 104.515 25.2025C104.529 25.323 104.641 25.4106 104.766 25.3986L109.269 24.956C109.022 25.1471 108.673 25.3509 108.242 25.4312C107.262 25.6159 105.982 25.6729 105.978 25.6732C105.853 25.6774 105.757 25.7805 105.763 25.9009C105.771 26.0222 105.878 26.1161 106.004 26.1105C106.007 26.1101 107.316 26.0539 108.332 25.8617C108.759 25.7815 109.117 25.6025 109.394 25.4133C109.364 25.7573 109.746 25.8764 109.984 25.9174C109.937 25.9927 109.942 26.0923 110.002 26.1657C110.006 26.171 110.009 26.1753 110.014 26.1793C109.962 26.2108 109.923 26.2612 109.91 26.3239L109.393 28.882C109.369 29.0013 109.451 29.1169 109.574 29.1401C109.578 29.1415 109.582 29.142 109.585 29.1425L109.546 29.4255C109.542 29.424 109.537 29.4217 109.532 29.4196C109.181 29.2797 108.653 29.086 108.396 28.9927C108.4 28.4416 108.356 26.6486 107.619 26.4695C107.139 26.3544 106.877 26.5333 106.728 26.8392C106.606 27.0873 106.581 27.4086 106.563 27.696C106.536 28.0861 106.408 28.6164 106.348 28.8502L105.852 28.9829C105.731 29.016 105.661 29.1367 105.696 29.2532C105.709 29.2975 105.735 29.3348 105.769 29.3622C105.747 29.3922 105.73 29.4245 105.725 29.4568C105.556 29.4213 105.39 29.3859 105.227 29.3521C105.29 29.3088 105.328 29.2347 105.321 29.1541L105.321 29.1535ZM105.979 25.6732L100.617 25.289L105.979 25.6732Z" fill="white"/>
<path fill-rule="evenodd" clip-rule="evenodd" d="M108.893 23.8608L106.916 24.7486L106.167 24.8223C105.961 24.8028 104.466 24.6374 104.676 23.9463C104.926 23.1247 108.396 23.5965 108.405 23.5978C108.501 23.6109 108.59 23.5656 108.634 23.4898C108.77 23.5713 108.89 23.6914 108.893 23.8606L108.893 23.8608Z" fill="white"/>
<path fill-rule="evenodd" clip-rule="evenodd" d="M110.066 24.7993C110.14 24.7025 110.118 24.5653 110.016 24.4923C109.967 24.4564 109.907 24.4427 109.849 24.4498L108.294 24.603L134.75 12.7145C135.17 12.7175 137.161 12.7356 137.842 12.8204C137.923 12.8447 137.998 12.8691 138.064 12.8948C138.062 12.8962 138.061 12.8982 138.057 12.9002C137.995 12.9419 135.727 13.89 132.643 15.1797C126.493 17.7518 117.104 21.6777 115.227 22.6244C112.396 24.0511 110.048 25.8453 110.042 25.8505C110.02 25.868 110.001 25.8875 109.988 25.91C109.75 25.869 109.367 25.7499 109.398 25.4059C109.827 25.115 110.065 24.8014 110.065 24.7993L110.066 24.7993Z" fill="white"/>
<path fill-rule="evenodd" clip-rule="evenodd" d="M110.177 27.3468L110.366 26.4123C110.38 26.3411 110.356 26.2704 110.308 26.2206C110.315 26.216 110.323 26.2116 110.329 26.2063C110.33 26.2056 110.36 26.1831 110.417 26.1412C110.501 26.1613 110.6 26.1868 110.694 26.2121C110.692 26.219 110.691 26.2257 110.689 26.2327C110.665 26.3519 110.746 26.4675 110.869 26.4915L111.968 26.7099L111.885 27.1527C111.456 27.0487 111.208 26.9887 111.204 26.9874C111.082 26.9575 110.959 27.0285 110.929 27.1464C110.9 27.2642 110.975 27.3831 111.098 27.4139C111.101 27.4145 111.359 27.4771 111.804 27.5849L111.778 27.7197L110.177 27.3471L110.177 27.3468Z" fill="white"/>
<path fill-rule="evenodd" clip-rule="evenodd" d="M99.7662 25.1982L99.7381 25.6745C99.7381 25.6808 99.738 25.6878 99.7377 25.6941L98.9858 25.6489C98.9647 25.5753 98.9046 25.5136 98.822 25.4921C98.8133 25.4909 95.7677 24.7099 94.3579 25.0423C93.6924 25.199 92.8701 25.3696 91.5825 25.3935C90.2825 25.4165 88.5097 25.2902 85.9498 24.8519C80.9183 23.9893 50.7166 21.8365 49.0296 21.7164L48.0488 20.8715C52.3376 21.1886 76.0908 22.9419 80.5335 23.2218C84.7391 23.4861 96.4923 24.8221 99.7668 25.198L99.7662 25.1982Z" fill="white"/>
<path fill-rule="evenodd" clip-rule="evenodd" d="M106.754 29.0761C106.755 29.0733 106.98 28.273 107.016 27.7172C107.032 27.4702 107.052 27.1932 107.138 27.0195C107.196 26.9031 107.304 26.8361 107.512 26.8859C108.017 27.0075 107.938 29.1151 107.938 29.1215C107.934 29.2139 107.992 29.3025 108.087 29.3368C108.089 29.3371 108.881 29.6242 109.361 29.8147C109.517 29.8777 109.377 30.0093 109.377 30.0093C109.312 30.0719 109.295 30.1655 109.327 30.2445C108.059 29.9528 106.827 29.6793 105.724 29.4463C105.73 29.414 105.746 29.3816 105.768 29.3516C105.825 29.3971 105.901 29.4161 105.977 29.3951L106.598 29.2284C106.672 29.2077 106.733 29.1526 106.755 29.0762L106.754 29.0761ZM109.377 30.0093L107.938 29.1215L109.377 30.0093Z" fill="white"/>
<path d="M143.472 31.8125C145.326 31.8125 146.899 31.9954 148.192 32.3613C149.509 32.7028 150.57 33.2638 151.375 34.0443C152.204 34.8004 152.802 35.7882 153.168 37.0077C153.534 38.2273 153.717 39.7151 153.717 41.4713V47.7641C153.717 49.5203 153.534 51.0203 153.168 52.2642C152.802 53.4838 152.204 54.4838 151.375 55.2643C150.57 56.0204 149.509 56.5692 148.192 56.9107C146.899 57.2521 145.326 57.4229 143.472 57.4229H132.167C130.314 57.4229 128.74 57.2521 127.448 56.9107C126.155 56.5692 125.094 56.0204 124.265 55.2643C123.46 54.4838 122.862 53.4838 122.472 52.2642C122.106 51.0203 121.923 49.5203 121.923 47.7641V41.4713C121.923 39.7151 122.106 38.2273 122.472 37.0077C122.862 35.7882 123.46 34.8004 124.265 34.0443C125.094 33.2638 126.155 32.7028 127.448 32.3613C128.74 31.9954 130.314 31.8125 132.167 31.8125H143.472ZM127.521 47.3617C127.521 48.3129 127.594 49.1178 127.74 49.7764C127.911 50.4105 128.179 50.9227 128.545 51.313C128.911 51.6788 129.399 51.9471 130.009 52.1179C130.643 52.2642 131.435 52.3374 132.387 52.3374H143.253C144.204 52.3374 144.985 52.2642 145.594 52.1179C146.229 51.9471 146.729 51.6788 147.094 51.313C147.46 50.9227 147.716 50.4105 147.863 49.7764C148.033 49.1178 148.119 48.3129 148.119 47.3617V41.8737C148.119 40.9225 148.033 40.1298 147.863 39.4956C147.716 38.8371 147.46 38.3249 147.094 37.959C146.729 37.5687 146.229 37.3004 145.594 37.1541C144.985 36.9834 144.204 36.898 143.253 36.898H132.387C131.435 36.898 130.643 36.9834 130.009 37.1541C129.399 37.3004 128.911 37.5687 128.545 37.959C128.179 38.3249 127.911 38.8371 127.74 39.4956C127.594 40.1298 127.521 40.9225 127.521 41.8737V47.3617Z" fill="white"/>
<path d="M22.1713 31.8125C24.6835 31.8125 26.4641 32.3125 27.5129 33.3125C28.5861 34.3126 29.1227 35.8248 29.1227 37.8492V39.6054C29.1227 41.6542 28.3422 43.203 26.7811 44.2518C28.4641 45.2275 29.3056 46.8007 29.3056 48.9715V51.0935C29.3056 52.0691 29.1958 52.9472 28.9763 53.7277C28.7568 54.5082 28.3909 55.1789 27.8787 55.7399C27.3909 56.2765 26.7324 56.6912 25.9031 56.9838C25.0738 57.2765 24.0494 57.4229 22.8298 57.4229H1.09759C0.365863 57.4229 0 57.057 0 56.3253V32.9101C0 32.1784 0.365863 31.8125 1.09759 31.8125H22.1713ZM5.5977 46.447V51.8984C5.5977 52.2154 5.75624 52.374 6.07332 52.374H21.0737C22.0493 52.374 22.7445 52.2032 23.1591 51.8618C23.5737 51.4959 23.7811 50.9227 23.7811 50.1422V48.7519C23.7811 47.9958 23.5494 47.4226 23.0859 47.0324C22.6469 46.6421 21.8176 46.447 20.5981 46.447H5.5977ZM5.5977 42.4591H20.5981C21.8176 42.4591 22.6469 42.2762 23.0859 41.9103C23.525 41.5444 23.7445 41.0078 23.7445 40.3005V39.0566C23.7445 38.3005 23.525 37.7517 23.0859 37.4102C22.6713 37.0443 21.9883 36.8614 21.0371 36.8614H6.07332C5.75624 36.8614 5.5977 37.0199 5.5977 37.337V42.4591Z" fill="white"/>
<path d="M59.9629 31.8125C60.4995 31.8125 60.7678 32.0808 60.7678 32.6174V36.0931C60.7678 36.6297 60.4995 36.898 59.9629 36.898H39.5843C39.2672 36.898 39.1087 37.0687 39.1087 37.4102V42.2396H59.7434C60.3043 42.2396 60.5848 42.5079 60.5848 43.0445V45.9348C60.5848 46.4714 60.3043 46.7397 59.7434 46.7397H39.1087V51.7886C39.1087 52.1545 39.2672 52.3374 39.5843 52.3374H59.9629C60.4995 52.3374 60.7678 52.6057 60.7678 53.1423V56.618C60.7678 57.1546 60.4995 57.4229 59.9629 57.4229H35.6696C34.9623 57.4229 34.4379 57.2887 34.0964 57.0204C33.7793 56.7521 33.6208 56.2765 33.6208 55.5936V33.6418C33.6208 33.1052 33.7793 32.6662 34.0964 32.3247C34.4379 31.9832 34.9623 31.8125 35.6696 31.8125H59.9629Z" fill="white"/>
<path d="M85.7708 31.8125C88.5757 31.8125 90.588 32.4467 91.8075 33.715C93.027 34.9833 93.6368 36.8614 93.6368 39.3493V42.0567C93.6368 44.5445 93.027 46.4226 91.8075 47.6909C90.588 48.9593 88.5757 49.5934 85.7708 49.5934H70.6241V56.618C70.6241 57.1546 70.3558 57.4229 69.8192 57.4229H65.8678C65.3068 57.4229 65.0264 57.1546 65.0264 56.618V32.9101C65.0264 32.1784 65.3922 31.8125 66.1239 31.8125H85.7708ZM70.6241 44.764H84.6366C85.8805 44.764 86.7586 44.4957 87.2708 43.9591C87.783 43.4225 88.0391 42.6054 88.0391 41.5079V40.1176C88.0391 39.02 87.783 38.2029 87.2708 37.6663C86.7586 37.1297 85.8805 36.8614 84.6366 36.8614H71.0997C70.7826 36.8614 70.6241 37.0077 70.6241 37.3004V44.764Z" fill="white"/>
<path d="M104.703 33.5275C104.703 31.8384 106.263 30.581 107.914 30.9395C109.131 31.2039 110 32.2814 110 33.5275V50.1537C110 51.6164 108.814 52.8021 107.351 52.8021C105.889 52.8021 104.703 51.6164 104.703 50.1537V33.5275Z" fill="white"/>
</svg>
