<svg width="40" height="40" viewBox="0 0 40 40" fill="none" xmlns="http://www.w3.org/2000/svg">
<circle cx="20" cy="20" r="19.5" stroke="white"/>
<path d="M15.1155 12.0973L17.8157 15.7794C18.0907 16.1545 17.9972 16.6832 17.6103 16.9412C16.7069 17.5434 16.3389 18.6682 16.9527 19.5637C17.3227 20.1036 17.8374 20.7501 18.5438 21.4565L16.8313 23.169C14.162 20.4997 12.7616 18.5106 12.0308 17.2067C11.3937 16.0701 11.6469 14.7508 12.3697 13.6667L13.3902 12.1359C13.7958 11.5274 14.683 11.5076 15.1155 12.0973Z" fill="white"/>
<path opacity="0.4" d="M27.903 24.8844L24.2209 22.1842C23.8458 21.9091 23.3171 22.0026 23.0591 22.3896C22.4569 23.293 21.3321 23.661 20.4366 23.0472C19.8967 22.6771 19.2502 22.1624 18.5439 21.4561L16.8313 23.1686C19.5006 25.8379 21.4898 27.2383 22.7936 27.9691C23.9302 28.6062 25.2495 28.353 26.3336 27.6302L27.8644 26.6097C28.4729 26.2041 28.4928 25.3169 27.903 24.8844Z" fill="white"/>
</svg>
