<svg width="25" height="25" viewBox="0 0 25 25" fill="none" xmlns="http://www.w3.org/2000/svg">
<path d="M12.5625 1.5625C6.48795 1.5625 1.5625 6.48795 1.5625 12.5625C1.5625 18.6371 6.48795 23.5625 12.5625 23.5625C18.6371 23.5625 23.5625 18.6371 23.5625 12.5625C23.5625 6.48795 18.6371 1.5625 12.5625 1.5625ZM12.5625 21.6964C7.5192 21.6964 3.42857 17.6058 3.42857 12.5625C3.42857 7.5192 7.5192 3.42857 12.5625 3.42857C17.6058 3.42857 21.6964 7.5192 21.6964 12.5625C21.6964 17.6058 17.6058 21.6964 12.5625 21.6964Z" fill="white"/>
<path d="M16.9922 11.7188H13.2812V8.00781C13.2812 7.90039 13.1934 7.8125 13.0859 7.8125H11.9141C11.8066 7.8125 11.7188 7.90039 11.7188 8.00781V11.7188H8.00781C7.90039 11.7188 7.8125 11.8066 7.8125 11.9141V13.0859C7.8125 13.1934 7.90039 13.2812 8.00781 13.2812H11.7188V16.9922C11.7188 17.0996 11.8066 17.1875 11.9141 17.1875H13.0859C13.1934 17.1875 13.2812 17.0996 13.2812 16.9922V13.2812H16.9922C17.0996 13.2812 17.1875 13.1934 17.1875 13.0859V11.9141C17.1875 11.8066 17.0996 11.7188 16.9922 11.7188Z" fill="white"/>
</svg>
