<svg width="40" height="40" viewBox="0 0 40 40" fill="none" xmlns="http://www.w3.org/2000/svg">
<circle cx="20" cy="20" r="19.5" stroke="white"/>
<path opacity="0.4" d="M14.5834 13.333H25.4167C25.8037 13.333 25.9972 13.333 26.1597 13.3544C27.2815 13.5021 28.1643 14.3849 28.312 15.5067C28.3135 15.5182 28.3149 15.53 28.3162 15.5419L20.3412 19.9321C20.2179 19.9999 20.148 20.0381 20.0937 20.064C20.0602 20.08 20.0454 20.085 20.0414 20.0862C20.0141 20.0917 19.986 20.0917 19.9587 20.0862C19.9547 20.085 19.9399 20.08 19.9063 20.064C19.852 20.0381 19.7819 19.9998 19.6587 19.932L11.6838 15.5419C11.6852 15.53 11.6866 15.5182 11.6881 15.5067C11.8358 14.3849 12.7185 13.5021 13.8404 13.3544C14.0028 13.333 14.1963 13.333 14.5834 13.333Z" fill="white"/>
<path d="M11.6666 16.96V22.667C11.6666 24.0671 11.6666 24.7672 11.9391 25.3019C12.1788 25.7724 12.5612 26.1548 13.0316 26.3945C13.5664 26.667 14.2665 26.667 15.6666 26.667H24.3333C25.7334 26.667 26.4335 26.667 26.9683 26.3945C27.4387 26.1548 27.8211 25.7724 28.0608 25.3019C28.3333 24.7672 28.3333 24.0671 28.3333 22.667V16.96L20.9439 21.0278L20.8972 21.0535C20.711 21.1565 20.512 21.2665 20.2913 21.3115C20.099 21.3507 19.9009 21.3507 19.7086 21.3115C19.4879 21.2665 19.2889 21.1565 19.1027 21.0536L19.0562 21.0279L11.6666 16.96Z" fill="white"/>
</svg>
