<svg width="56" height="56" viewBox="0 0 56 56" fill="none" xmlns="http://www.w3.org/2000/svg">
<path d="M27 36C27 36.5523 27.4477 37 28 37C28.5523 37 29 36.5523 29 36L27 36ZM28.7071 18.2929C28.3166 17.9024 27.6834 17.9024 27.2929 18.2929L20.9289 24.6569C20.5384 25.0474 20.5384 25.6805 20.9289 26.0711C21.3195 26.4616 21.9526 26.4616 22.3431 26.0711L28 20.4142L33.6569 26.0711C34.0474 26.4616 34.6805 26.4616 35.0711 26.0711C35.4616 25.6805 35.4616 25.0474 35.0711 24.6569L28.7071 18.2929ZM29 36L29 19L27 19L27 36L29 36Z" fill="white"/>
<circle cx="28" cy="28" r="27" transform="rotate(-180 28 28)" stroke="white" stroke-width="2"/>
</svg>
